<?xml version="1.0" encoding="UTF-8" standalone="no"?>
<svg
   xmlns:vectornator="http://vectornator.io"
   xmlns:dc="http://purl.org/dc/elements/1.1/"
   xmlns:cc="http://creativecommons.org/ns#"
   xmlns:rdf="http://www.w3.org/1999/02/22-rdf-syntax-ns#"
   xmlns:svg="http://www.w3.org/2000/svg"
   xmlns="http://www.w3.org/2000/svg"
   xmlns:sodipodi="http://sodipodi.sourceforge.net/DTD/sodipodi-0.dtd"
   xmlns:inkscape="http://www.inkscape.org/namespaces/inkscape"
   height="100%"
   style="fill-rule:evenodd;clip-rule:evenodd;stroke-linecap:round;stroke-linejoin:round;"
   xml:space="preserve"
   width="100%"
   version="1.1"
   viewBox="0 0 400 200"
   id="svg100"
   sodipodi:docname="plainPHP.svg"
   inkscape:version="1.0.2 (e86c870879, 2021-01-15, custom)"><sodipodi:namedview
   pagecolor="#ffffff"
   bordercolor="#666666"
   borderopacity="1"
   objecttolerance="10"
   gridtolerance="10"
   guidetolerance="10"
   inkscape:pageopacity="0"
   inkscape:pageshadow="2"
   inkscape:window-width="2560"
   inkscape:window-height="1377"
   id="namedview102"
   showgrid="false"
   inkscape:zoom="2.6375"
   inkscape:cx="200"
   inkscape:cy="100"
   inkscape:window-x="-8"
   inkscape:window-y="-8"
   inkscape:window-maximized="1"
   inkscape:current-layer="Ebene 1" />
<metadata
   id="metadata57">
<vectornator:setting
   key="DimensionsVisible"
   value="1" />
<vectornator:setting
   key="SnapToGrid"
   value="0" />
<vectornator:setting
   key="SnapToPoints"
   value="0" />
<vectornator:setting
   key="GuidesVisible"
   value="1" />
<vectornator:setting
   key="RulersVisible"
   value="1" />
<vectornator:setting
   key="SnapToEdges"
   value="0" />
<vectornator:setting
   key="DisplayWhiteBackground"
   value="0" />
<vectornator:setting
   key="SnapToGuides"
   value="1" />
<vectornator:setting
   key="GridSpacing"
   value="36" />
<vectornator:setting
   key="Units"
   value="Pixels" />
<vectornator:setting
   key="DynamicGuides"
   value="0" />
<vectornator:setting
   key="New"
   value="1" />
<rdf:RDF><cc:Work
     rdf:about=""><dc:format>image/svg+xml</dc:format><dc:type
       rdf:resource="http://purl.org/dc/dcmitype/StillImage" /><dc:title></dc:title></cc:Work></rdf:RDF></metadata>
<defs
   id="defs59" />
<g
   id="Ebene 1"
   vectornator:layerName="Ebene 1"
   transform="matrix(2.140438,0,0,3.2443111,-221.02545,-204.45192)"
   inkscape:export-xdpi="180"
   inkscape:export-ydpi="180">
<g
   opacity="1"
   id="g97">
<g
   opacity="1"
   id="g73">
<path
   d="m 108.335,89.0862 c 1.032,0 1.85,0.0996 2.455,0.2989 0.606,0.1992 0.909,0.5214 0.909,0.9668 0,0.4609 -0.196,0.9179 -0.586,1.3711 -1.532,-0.711 -2.742,-1.0665 -3.633,-1.0665 -0.602,0 -1.053,0.1133 -1.354,0.3399 -0.3,0.2266 -0.451,0.5547 -0.451,0.9844 0,0.4453 0.17,0.8125 0.51,1.1015 0.34,0.2891 1.037,0.6289 2.092,1.0196 1.328,0.4687 2.273,0.955 2.836,1.4589 0.562,0.504 0.843,1.1973 0.843,2.0801 0,1.1172 -0.429,1.9727 -1.289,2.5661 -0.859,0.594 -2.082,0.891 -3.668,0.891 -1.211,0 -2.134,-0.086 -2.771,-0.258 -0.637,-0.172 -0.955,-0.531 -0.955,-1.078 0,-0.3984 0.152,-0.789 0.457,-1.1719 1.336,0.625 2.578,0.9375 3.726,0.9375 0.719,0 1.254,-0.1171 1.606,-0.3515 0.351,-0.2344 0.527,-0.6094 0.527,-1.125 0,-0.5547 -0.267,-0.9942 -0.802,-1.3184 -0.536,-0.3242 -1.374,-0.709 -2.514,-1.1543 -1.125,-0.4297 -1.902,-0.8828 -2.332,-1.3594 -0.43,-0.4765 -0.645,-1.082 -0.645,-1.8164 0,-0.9921 0.426,-1.7929 1.278,-2.4023 0.851,-0.6094 2.105,-0.9141 3.761,-0.9141 z"
   opacity="1"
   fill="#4a2727"
   id="path61" />
<path
   d="m 119.234,90.6565 c -0.781,0 -1.375,0.2793 -1.781,0.8379 -0.407,0.5586 -0.629,1.4317 -0.668,2.6192 h 1.207 c 1.281,0 2.154,-0.0254 2.619,-0.0762 0.465,-0.0508 0.734,-0.1348 0.808,-0.2519 0.075,-0.1172 0.112,-0.336 0.112,-0.6563 0,-0.7734 -0.196,-1.3789 -0.586,-1.8164 -0.391,-0.4375 -0.961,-0.6563 -1.711,-0.6563 z m 0.445,-1.5703 c 1.453,0 2.531,0.3438 3.234,1.0313 0.704,0.6875 1.055,1.8203 1.055,3.3984 0,0.6953 -0.125,1.1797 -0.375,1.4531 -0.25,0.2735 -0.797,0.4102 -1.64,0.4102 h -5.18 c 0.015,1.2734 0.271,2.2734 0.767,3 0.497,0.7266 1.373,1.0898 2.631,1.0898 1.172,0 2.262,-0.3046 3.27,-0.914 0.336,0.3359 0.504,0.6914 0.504,1.0664 0,0.5236 -0.432,0.8906 -1.295,1.1016 -0.863,0.211 -1.838,0.316 -2.924,0.316 -2,0 -3.436,-0.423 -4.307,-1.2711 -0.871,-0.8477 -1.306,-2.2754 -1.306,-4.2832 0,-1.9766 0.49,-3.5371 1.47,-4.6817 0.981,-1.1445 2.346,-1.7168 4.096,-1.7168 z"
   opacity="1"
   fill="#4a2727"
   id="path63" />
<path
   d="m 127.449,94.1487 c 0,-3.3047 -0.016,-5.4082 -0.047,-6.3105 -0.031,-0.9024 -0.088,-1.4902 -0.17,-1.7637 -0.082,-0.2734 -0.217,-0.4492 -0.404,-0.5273 -0.188,-0.0782 -0.434,-0.1172 -0.739,-0.1172 -0.101,-0.2422 -0.152,-0.4805 -0.152,-0.7149 0,-0.2421 0.1,-0.3945 0.299,-0.457 0.199,-0.0625 0.842,-0.0937 1.927,-0.0937 0.618,0 1.036,0.0293 1.254,0.0879 0.219,0.0585 0.344,0.1679 0.375,0.3281 0.032,0.1601 0.047,0.4355 0.047,0.8261 v 9.8086 c 0.008,1.875 0.039,3.3555 0.094,4.4414 h 1.301 c 0.094,0.2032 0.14,0.4215 0.14,0.6565 0,0.211 -0.043,0.355 -0.128,0.433 -0.086,0.079 -0.25,0.118 -0.493,0.118 h -4.664 c -0.101,-0.25 -0.152,-0.485 -0.152,-0.704 0,-0.1714 0.043,-0.2984 0.129,-0.3804 0.086,-0.082 0.226,-0.1231 0.422,-0.1231 h 0.867 c 0.062,-1.0859 0.094,-2.9218 0.094,-5.5078 z"
   opacity="1"
   fill="#4a2727"
   id="path65" />
<path
   d="m 137.14,99.6565 h 1.711 c 0.094,0.2032 0.141,0.4215 0.141,0.6565 0,0.211 -0.043,0.355 -0.129,0.433 -0.086,0.079 -0.25,0.118 -0.492,0.118 h -5.075 c -0.101,-0.25 -0.152,-0.485 -0.152,-0.704 0,-0.1714 0.043,-0.2984 0.129,-0.3804 0.086,-0.082 0.226,-0.1231 0.422,-0.1231 h 0.867 c 0.062,-1.0859 0.094,-2.3593 0.094,-3.8203 V 90.762 h -1.371 c -0.094,-0.2812 -0.141,-0.5547 -0.141,-0.8203 0,-0.1953 0.043,-0.3379 0.129,-0.4277 0.086,-0.0899 0.23,-0.1348 0.433,-0.1348 h 0.95 c 0.023,-1.9609 0.418,-3.3203 1.183,-4.0781 0.766,-0.7578 1.977,-1.1367 3.633,-1.1367 0.945,0 1.664,0.0781 2.156,0.2343 0.493,0.1563 0.739,0.4453 0.739,0.8672 0,0.375 -0.161,0.7696 -0.481,1.1836 -1.312,-0.5156 -2.367,-0.7734 -3.164,-0.7734 -0.687,0 -1.139,0.2285 -1.353,0.6855 -0.215,0.4571 -0.323,1.2442 -0.323,2.3614 v 0.6562 h 3.246 c 0.094,0.2578 0.141,0.5313 0.141,0.8203 0,0.2266 -0.043,0.377 -0.129,0.4512 -0.086,0.0742 -0.258,0.1113 -0.516,0.1113 h -2.742 v 5.0742 c 0,1.461 0.032,2.7344 0.094,3.8203 z"
   opacity="1"
   fill="#4a2727"
   id="path67" />
<path
   d="m 145.788,101.098 c -0.593,0 -1.029,-0.115 -1.306,-0.346 -0.278,-0.23 -0.416,-0.564 -0.416,-1.0017 0,-0.4375 0.152,-0.7734 0.457,-1.0078 0.305,-0.2344 0.726,-0.3516 1.265,-0.3516 0.594,0 1.032,0.1172 1.313,0.3516 0.281,0.2344 0.422,0.5703 0.422,1.0078 0,0.4377 -0.152,0.7717 -0.457,1.0017 -0.305,0.231 -0.731,0.346 -1.278,0.346 z m 0,-9.129 c -0.593,0 -1.029,-0.1152 -1.306,-0.3457 -0.278,-0.2304 -0.416,-0.5644 -0.416,-1.0019 0,-0.4375 0.152,-0.7734 0.457,-1.0078 0.305,-0.2344 0.726,-0.3516 1.265,-0.3516 0.594,0 1.032,0.1172 1.313,0.3516 0.281,0.2344 0.422,0.5703 0.422,1.0078 0,0.4375 -0.152,0.7715 -0.457,1.0019 -0.305,0.2305 -0.731,0.3457 -1.278,0.3457 z"
   opacity="1"
   fill="#4a2727"
   id="path69" />
<path
   d="m 154.894,101.098 c -0.594,0 -1.029,-0.115 -1.307,-0.346 -0.277,-0.23 -0.416,-0.564 -0.416,-1.0017 0,-0.4375 0.153,-0.7734 0.457,-1.0078 0.305,-0.2344 0.727,-0.3516 1.266,-0.3516 0.594,0 1.031,0.1172 1.312,0.3516 0.282,0.2344 0.422,0.5703 0.422,1.0078 0,0.4377 -0.152,0.7717 -0.457,1.0017 -0.304,0.231 -0.73,0.346 -1.277,0.346 z m 0,-9.129 c -0.594,0 -1.029,-0.1152 -1.307,-0.3457 -0.277,-0.2304 -0.416,-0.5644 -0.416,-1.0019 0,-0.4375 0.153,-0.7734 0.457,-1.0078 0.305,-0.2344 0.727,-0.3516 1.266,-0.3516 0.594,0 1.031,0.1172 1.312,0.3516 0.282,0.2344 0.422,0.5703 0.422,1.0078 0,0.4375 -0.152,0.7715 -0.457,1.0019 -0.304,0.2305 -0.73,0.3457 -1.277,0.3457 z"
   opacity="1"
   fill="#4a2727"
   id="path71" />
</g>
<g
   opacity="1"
   id="g77">
<path
   d="m 170.72,74.7003 c -2.688,0.0684 -4.654,0.6836 -5.896,1.8457 -1.242,1.1622 -1.862,2.7572 -1.862,4.7852 0,2.0508 0.632,3.6515 1.897,4.8022 1.264,1.1508 3.218,2.2274 5.861,3.23 z m 1.88,49.7317 c -0.592,0.296 -1.492,0.444 -2.7,0.444 -0.775,0 -1.287,-0.171 -1.538,-0.513 -0.251,-0.341 -0.376,-0.968 -0.376,-1.879 v -4.649 c -4.147,-0.045 -7.349,-0.376 -9.605,-0.991 -2.255,-0.615 -3.383,-1.789 -3.383,-3.521 0,-1.572 0.672,-2.962 2.016,-4.17 3.418,1.892 7.075,3.042 10.972,3.453 V 96.0285 c -4.671,-1.5039 -7.913,-3.2414 -9.724,-5.2124 -1.812,-1.9711 -2.717,-4.5744 -2.717,-7.8101 0,-4.0104 1.384,-7.1322 4.152,-9.3652 2.769,-2.2331 6.158,-3.4522 10.169,-3.6573 v -6.5283 c 0.911,-0.2734 1.743,-0.4101 2.495,-0.4101 0.934,0 1.521,0.1652 1.76,0.4956 0.239,0.3304 0.359,0.826 0.359,1.4868 v 4.8193 c 4.102,0.0684 7.064,0.3703 8.887,0.9058 1.823,0.5355 2.734,1.6349 2.734,3.2983 0,1.5267 -0.615,2.8825 -1.846,4.0674 -3.395,-1.5495 -6.653,-2.5407 -9.775,-2.9736 v 15.3808 c 4.102,1.3444 7.343,2.911 9.724,4.6997 2.381,1.7888 3.572,4.7798 3.572,8.9718 0,4.148 -1.361,7.355 -4.084,9.622 -2.723,2.267 -6.421,3.549 -11.092,3.845 z m -0.854,-27.1731 v 15.5861 c 3.053,-0.091 5.252,-0.661 6.596,-1.709 1.345,-1.048 2.017,-2.712 2.017,-4.99 0,-2.644 -0.889,-4.592 -2.666,-5.845 -1.777,-1.2533 -3.76,-2.2673 -5.947,-3.0421 z"
   opacity="1"
   fill="#4a2727"
   id="path75" />
</g>
<g
   opacity="1"
   id="g95">
<path
   d="m 194.817,108.423 c 0.289,0.195 0.629,0.355 1.02,0.48 0.39,0.125 0.824,0.188 1.3,0.188 1.04,0 1.758,-0.317 2.157,-0.949 0.398,-0.633 0.597,-1.727 0.597,-3.282 0,-1.695 -0.209,-2.892 -0.627,-3.591 -0.418,-0.7 -1.091,-1.049 -2.021,-1.049 -0.461,0 -0.881,0.09 -1.26,0.269 -0.379,0.18 -0.668,0.483 -0.867,0.909 -0.199,0.425 -0.299,1.021 -0.299,1.787 z m -0.609,-9.5978 c 0.047,0.3282 0.047,0.6719 0,1.0313 0.578,-0.3594 1.199,-0.6504 1.863,-0.8731 0.664,-0.2226 1.41,-0.3339 2.238,-0.3339 1.422,0 2.481,0.3906 3.176,1.1718 0.695,0.7817 1.043,2.0817 1.043,3.9027 0,2.359 -0.471,4.105 -1.412,5.238 -0.941,1.133 -2.334,1.699 -4.178,1.699 -0.5,0 -0.922,-0.027 -1.265,-0.082 -0.344,-0.055 -0.629,-0.117 -0.856,-0.187 0.008,1.492 0.039,2.82 0.094,3.984 h 1.535 c 0.094,0.203 0.141,0.422 0.141,0.656 0,0.211 -0.043,0.356 -0.129,0.434 -0.086,0.078 -0.25,0.117 -0.492,0.117 h -4.84 c -0.102,-0.25 -0.153,-0.484 -0.153,-0.703 0,-0.172 0.043,-0.299 0.129,-0.381 0.086,-0.082 0.227,-0.123 0.422,-0.123 h 0.809 c 0.062,-1.164 0.094,-2.742 0.094,-4.734 v -4.993 c 0,-2.304 -0.09,-3.64 -0.27,-4.007 -0.18,-0.368 -0.523,-0.551 -1.031,-0.551 -0.102,-0.2189 -0.153,-0.4455 -0.153,-0.6798 0,-0.211 0.082,-0.3457 0.247,-0.4043 0.164,-0.0586 1.16,-0.1192 2.988,-0.1817 z"
   opacity="1"
   fill="#4a2727"
   id="path79" />
<path
   d="m 205.95,103.712 c 0,-3.305 -0.016,-5.4082 -0.047,-6.3106 -0.031,-0.9023 -0.088,-1.4902 -0.17,-1.7637 -0.082,-0.2734 -0.217,-0.4492 -0.404,-0.5273 -0.188,-0.0781 -0.434,-0.1172 -0.738,-0.1172 -0.102,-0.2422 -0.153,-0.4805 -0.153,-0.7148 0,-0.2422 0.1,-0.3946 0.299,-0.4571 0.199,-0.0625 0.842,-0.0937 1.928,-0.0937 0.617,0 1.035,0.0293 1.254,0.0879 0.218,0.0586 0.343,0.1679 0.375,0.3281 0.031,0.1602 0.047,0.4355 0.047,0.8262 v 9.8082 c 0.007,1.875 0.039,3.356 0.093,4.442 h 1.301 c 0.094,0.203 0.141,0.422 0.141,0.656 0,0.211 -0.043,0.355 -0.129,0.434 -0.086,0.078 -0.25,0.117 -0.492,0.117 h -4.664 c -0.102,-0.25 -0.153,-0.485 -0.153,-0.703 0,-0.172 0.043,-0.299 0.129,-0.381 0.086,-0.082 0.227,-0.123 0.422,-0.123 h 0.867 c 0.063,-1.086 0.094,-2.922 0.094,-5.508 z"
   opacity="1"
   fill="#4a2727"
   id="path81" />
<path
   d="m 218.794,109.489 c -0.657,0.383 -1.33,0.674 -2.022,0.873 -0.691,0.2 -1.369,0.299 -2.033,0.299 -1.055,0 -1.84,-0.248 -2.355,-0.744 -0.516,-0.496 -0.774,-1.232 -0.774,-2.209 0,-1.195 0.426,-2.109 1.277,-2.742 0.852,-0.633 2.168,-0.949 3.95,-0.949 h 1.722 c -0.047,-1.375 -0.244,-2.332 -0.591,-2.871 -0.348,-0.54 -0.963,-0.809 -1.846,-0.809 -0.469,0 -0.918,0.047 -1.348,0.141 -0.226,0.453 -0.361,0.695 -0.404,0.726 -0.043,0.031 -0.268,0.1 -0.674,0.205 -0.406,0.106 -0.689,0.086 -0.85,-0.058 -0.16,-0.145 -0.324,-0.409 -0.492,-0.791 -0.168,-0.383 -0.252,-0.6918 -0.252,-0.9262 0,-0.1562 0.065,-0.2773 0.194,-0.3633 0.129,-0.0859 0.654,-0.1914 1.576,-0.3164 0.922,-0.125 1.902,-0.1875 2.941,-0.1875 1.383,0 2.405,0.2383 3.065,0.7149 0.66,0.4765 0.99,1.3515 0.99,2.6245 v 3.61 c 0,1.672 0.072,2.691 0.217,3.058 0.144,0.368 0.385,0.516 0.72,0.446 0.094,0.172 0.141,0.34 0.141,0.504 0,0.265 -0.166,0.468 -0.498,0.609 -0.332,0.141 -0.779,0.211 -1.342,0.211 -0.273,0 -0.482,-0.033 -0.627,-0.1 -0.144,-0.066 -0.373,-0.384 -0.685,-0.955 z m -0.235,-3.961 c -0.672,-0.117 -1.367,-0.175 -2.086,-0.175 -0.89,0 -1.513,0.148 -1.869,0.445 -0.355,0.297 -0.533,0.766 -0.533,1.406 0,0.625 0.158,1.096 0.475,1.412 0.316,0.317 0.806,0.475 1.47,0.475 0.516,0 0.996,-0.102 1.442,-0.305 0.445,-0.203 0.74,-0.486 0.885,-0.849 0.144,-0.364 0.216,-0.936 0.216,-1.717 z"
   opacity="1"
   fill="#4a2727"
   id="path83" />
<path
   d="m 226.177,96.8213 c -0.508,0 -0.883,-0.1054 -1.125,-0.3164 -0.243,-0.2109 -0.364,-0.5156 -0.364,-0.914 0.008,-0.4297 0.164,-0.7735 0.469,-1.0313 0.305,-0.2578 0.734,-0.3867 1.289,-0.3867 0.547,0 0.938,0.1113 1.172,0.334 0.234,0.2226 0.352,0.5215 0.352,0.8965 0,0.4218 -0.145,0.7636 -0.434,1.0254 -0.289,0.2617 -0.742,0.3925 -1.359,0.3925 z m 1.664,12.3987 h 1.242 c 0.101,0.203 0.152,0.422 0.152,0.656 0,0.211 -0.043,0.355 -0.129,0.434 -0.086,0.078 -0.254,0.117 -0.504,0.117 h -4.605 c -0.094,-0.25 -0.141,-0.485 -0.141,-0.703 0,-0.172 0.041,-0.299 0.123,-0.381 0.082,-0.082 0.225,-0.123 0.428,-0.123 h 0.867 c 0.055,-1.086 0.082,-2.36 0.082,-3.821 0,-1.781 -0.013,-2.97 -0.041,-3.568 -0.027,-0.598 -0.092,-1.01 -0.193,-1.236 -0.102,-0.227 -0.244,-0.367 -0.428,-0.422 -0.183,-0.055 -0.412,-0.082 -0.685,-0.082 -0.102,-0.1642 -0.153,-0.3556 -0.153,-0.5744 0,-0.3203 0.153,-0.5156 0.457,-0.5859 0.305,-0.0703 0.895,-0.1055 1.77,-0.1055 0.617,0 1.035,0.0293 1.254,0.0879 0.218,0.0586 0.343,0.168 0.375,0.3282 0.031,0.1601 0.047,0.4355 0.047,0.8257 v 5.332 c 0,1.461 0.027,2.735 0.082,3.821 z"
   opacity="1"
   fill="#4a2727"
   id="path85" />
<path
   d="m 234.462,100.208 c 0.773,-0.5156 1.537,-0.8945 2.291,-1.1367 0.754,-0.2422 1.427,-0.3633 2.021,-0.3633 1.039,0 1.822,0.2403 2.35,0.7208 0.527,0.4804 0.791,1.3962 0.791,2.7482 0,4.203 0.06,6.429 0.181,6.679 0.122,0.25 0.401,0.372 0.838,0.364 0.086,0.226 0.129,0.453 0.129,0.679 0,0.211 -0.066,0.352 -0.199,0.422 -0.133,0.071 -0.379,0.106 -0.738,0.106 -1.086,0 -1.75,-0.014 -1.992,-0.041 -0.243,-0.028 -0.407,-0.11 -0.493,-0.246 -0.086,-0.137 -0.129,-0.366 -0.129,-0.686 v -5.051 c 0,-1.609 -0.169,-2.679 -0.509,-3.211 -0.34,-0.531 -0.889,-0.796 -1.647,-0.796 -0.648,0 -1.209,0.183 -1.681,0.55 -0.473,0.368 -0.709,1.028 -0.709,1.981 v 2.472 c 0,1.383 0.027,2.657 0.082,3.821 h 1.3 c 0.094,0.203 0.141,0.422 0.141,0.656 0,0.211 -0.043,0.355 -0.129,0.434 -0.086,0.078 -0.25,0.117 -0.492,0.117 h -4.606 c -0.101,-0.25 -0.152,-0.485 -0.152,-0.703 0,-0.172 0.043,-0.299 0.129,-0.381 0.086,-0.082 0.227,-0.123 0.422,-0.123 h 0.809 c 0.062,-1.242 0.093,-2.766 0.093,-4.571 0,-2.304 -0.09,-3.64 -0.269,-4.007 -0.18,-0.368 -0.524,-0.551 -1.032,-0.551 -0.101,-0.2189 -0.152,-0.4455 -0.152,-0.6798 0,-0.211 0.082,-0.3457 0.246,-0.4043 0.164,-0.0586 1.199,-0.1192 3.106,-0.1817 0.047,0.3594 0.047,0.8203 0,1.3828 z"
   opacity="1"
   fill="#4a2727"
   id="path87" />
<path
   d="m 250.505,102.915 c 1.718,0 2.922,-0.246 3.609,-0.738 0.688,-0.492 1.031,-1.324 1.031,-2.4963 0,-1.125 -0.324,-1.9961 -0.972,-2.6133 -0.649,-0.6172 -1.711,-0.9258 -3.188,-0.9258 -0.492,0 -0.937,0.0391 -1.336,0.1172 -0.062,0.6719 -0.094,2.2539 -0.094,4.7462 v 1.91 z m -3.633,-7.2773 h -1.36 c -0.093,-0.2656 -0.14,-0.5117 -0.14,-0.7382 0,-0.1641 0.041,-0.2832 0.123,-0.3575 0.082,-0.0742 0.217,-0.1113 0.404,-0.1113 h 4.688 c 2.929,0 4.9,0.3594 5.912,1.0781 1.012,0.7188 1.517,1.8946 1.517,3.5274 0,1.6948 -0.605,3.0118 -1.816,3.9488 -1.211,0.938 -3.227,1.407 -6.047,1.407 h -0.598 c 0.016,2.406 0.047,4.015 0.094,4.828 h 1.793 c 0.094,0.234 0.141,0.461 0.141,0.679 0,0.196 -0.039,0.332 -0.117,0.411 -0.079,0.078 -0.215,0.117 -0.411,0.117 h -5.625 c -0.101,-0.266 -0.152,-0.512 -0.152,-0.738 0,-0.165 0.041,-0.284 0.123,-0.358 0.082,-0.074 0.217,-0.111 0.404,-0.111 h 1.067 c 0.062,-1.086 0.094,-3.871 0.094,-8.356 0,-2.3981 -0.032,-4.1403 -0.094,-5.2263 z"
   opacity="1"
   fill="#4a2727"
   id="path89" />
<path
   d="m 260.302,94.4307 h 4.933 c 0.094,0.2344 0.141,0.4609 0.141,0.6797 0,0.1953 -0.039,0.332 -0.117,0.4101 -0.079,0.0782 -0.215,0.1172 -0.411,0.1172 h -0.832 c -0.054,1.086 -0.082,2.9414 -0.082,5.5663 h 6.95 c -0.008,-2.6249 -0.039,-4.4803 -0.094,-5.5663 h -1.207 c -0.102,-0.2656 -0.153,-0.5117 -0.153,-0.7382 0,-0.1641 0.041,-0.2832 0.124,-0.3575 0.082,-0.0742 0.216,-0.1113 0.404,-0.1113 h 4.933 c 0.094,0.2344 0.141,0.4609 0.141,0.6797 0,0.1953 -0.039,0.332 -0.117,0.4101 -0.078,0.0782 -0.215,0.1172 -0.41,0.1172 h -0.95 c -0.054,1.086 -0.082,2.875 -0.082,5.3673 0,4.391 0.032,7.129 0.094,8.215 h 1.324 c 0.094,0.234 0.141,0.461 0.141,0.679 0,0.196 -0.039,0.332 -0.117,0.411 -0.078,0.078 -0.215,0.117 -0.41,0.117 h -4.922 c -0.102,-0.266 -0.153,-0.512 -0.153,-0.738 0,-0.165 0.041,-0.284 0.124,-0.358 0.082,-0.074 0.216,-0.111 0.404,-0.111 h 0.832 c 0.055,-0.922 0.086,-3.09 0.094,-6.504 h -6.95 c 0.008,3.406 0.039,5.574 0.094,6.504 h 1.207 c 0.094,0.234 0.141,0.461 0.141,0.679 0,0.196 -0.039,0.332 -0.117,0.411 -0.079,0.078 -0.215,0.117 -0.411,0.117 h -4.921 c -0.102,-0.266 -0.153,-0.512 -0.153,-0.738 0,-0.165 0.041,-0.284 0.123,-0.358 0.082,-0.074 0.217,-0.111 0.405,-0.111 h 0.949 c 0.062,-1.086 0.094,-3.871 0.094,-8.356 -0.008,-2.3981 -0.04,-4.1403 -0.094,-5.2263 h -1.324 c -0.102,-0.2656 -0.153,-0.5117 -0.153,-0.7382 0,-0.1641 0.041,-0.2832 0.123,-0.3575 0.082,-0.0742 0.217,-0.1113 0.405,-0.1113 z"
   opacity="1"
   fill="#4a2727"
   id="path91" />
<path
   d="m 282.602,102.915 c 1.719,0 2.922,-0.246 3.61,-0.738 0.687,-0.492 1.031,-1.324 1.031,-2.4963 0,-1.125 -0.324,-1.9961 -0.973,-2.6133 -0.648,-0.6172 -1.711,-0.9258 -3.187,-0.9258 -0.492,0 -0.938,0.0391 -1.336,0.1172 -0.063,0.6719 -0.094,2.2539 -0.094,4.7462 v 1.91 z m -3.632,-7.2773 h -1.36 c -0.094,-0.2656 -0.14,-0.5117 -0.14,-0.7382 0,-0.1641 0.041,-0.2832 0.123,-0.3575 0.082,-0.0742 0.216,-0.1113 0.404,-0.1113 h 4.687 c 2.93,0 4.901,0.3594 5.912,1.0781 1.012,0.7188 1.518,1.8946 1.518,3.5274 0,1.6948 -0.605,3.0118 -1.816,3.9488 -1.211,0.938 -3.227,1.407 -6.047,1.407 h -0.598 c 0.016,2.406 0.047,4.015 0.094,4.828 h 1.793 c 0.094,0.234 0.14,0.461 0.14,0.679 0,0.196 -0.039,0.332 -0.117,0.411 -0.078,0.078 -0.215,0.117 -0.41,0.117 h -5.625 c -0.101,-0.266 -0.152,-0.512 -0.152,-0.738 0,-0.165 0.041,-0.284 0.123,-0.358 0.082,-0.074 0.217,-0.111 0.404,-0.111 h 1.067 c 0.062,-1.086 0.093,-3.871 0.093,-8.356 0,-2.3981 -0.031,-4.1403 -0.093,-5.2263 z"
   opacity="1"
   fill="#4a2727"
   id="path93" />
</g>
</g>
</g>
</svg>
