<?xml version="1.0" encoding="UTF-8" standalone="no"?> <!-- Created with Vectornator for iOS (http://vectornator.io/) --><!DOCTYPE svg PUBLIC "-//W3C//DTD SVG 1.1//EN" "http://www.w3.org/Graphics/SVG/1.1/DTD/svg11.dtd">
<svg height="100%" style="fill-rule:evenodd;clip-rule:evenodd;stroke-linecap:round;stroke-linejoin:round;" xmlns:xlink="http://www.w3.org/1999/xlink" xmlns="http://www.w3.org/2000/svg" xml:space="preserve" width="100%" xmlns:vectornator="http://vectornator.io" version="1.1" viewBox="0 0 400 200">
<metadata>
<vectornator:setting key="DimensionsVisible" value="1"/>
<vectornator:setting key="SnapToGrid" value="0"/>
<vectornator:setting key="SnapToPoints" value="0"/>
<vectornator:setting key="GuidesVisible" value="1"/>
<vectornator:setting key="RulersVisible" value="1"/>
<vectornator:setting key="SnapToEdges" value="0"/>
<vectornator:setting key="DisplayWhiteBackground" value="0"/>
<vectornator:setting key="SnapToGuides" value="1"/>
<vectornator:setting key="GridSpacing" value="36"/>
<vectornator:setting key="Units" value="Pixels"/>
<vectornator:setting key="DynamicGuides" value="0"/>
<vectornator:setting key="New" value="1"/>
</metadata>
<defs/>
<g id="Ebene 1" vectornator:layerName="Ebene 1">
<g opacity="1">
<g opacity="1">
<path d="M108.335+89.0862C109.367+89.0862+110.185+89.1858+110.79+89.3851C111.396+89.5843+111.699+89.9065+111.699+90.3519C111.699+90.8128+111.503+91.2698+111.113+91.723C109.581+91.012+108.371+90.6565+107.48+90.6565C106.878+90.6565+106.427+90.7698+106.126+90.9964C105.826+91.223+105.675+91.5511+105.675+91.9808C105.675+92.4261+105.845+92.7933+106.185+93.0823C106.525+93.3714+107.222+93.7112+108.277+94.1019C109.605+94.5706+110.55+95.0569+111.113+95.5608C111.675+96.0648+111.956+96.7581+111.956+97.6409C111.956+98.7581+111.527+99.6136+110.667+100.207C109.808+100.801+108.585+101.098+106.999+101.098C105.788+101.098+104.865+101.012+104.228+100.84C103.591+100.668+103.273+100.309+103.273+99.762C103.273+99.3636+103.425+98.973+103.73+98.5901C105.066+99.2151+106.308+99.5276+107.456+99.5276C108.175+99.5276+108.71+99.4105+109.062+99.1761C109.413+98.9417+109.589+98.5667+109.589+98.0511C109.589+97.4964+109.322+97.0569+108.787+96.7327C108.251+96.4085+107.413+96.0237+106.273+95.5784C105.148+95.1487+104.371+94.6956+103.941+94.219C103.511+93.7425+103.296+93.137+103.296+92.4026C103.296+91.4105+103.722+90.6097+104.574+90.0003C105.425+89.3909+106.679+89.0862+108.335+89.0862Z" opacity="1" fill="#4a2727"/>
<path d="M119.234+90.6565C118.453+90.6565+117.859+90.9358+117.453+91.4944C117.046+92.053+116.824+92.9261+116.785+94.1136L117.992+94.1136C119.273+94.1136+120.146+94.0882+120.611+94.0374C121.076+93.9866+121.345+93.9026+121.419+93.7855C121.494+93.6683+121.531+93.4495+121.531+93.1292C121.531+92.3558+121.335+91.7503+120.945+91.3128C120.554+90.8753+119.984+90.6565+119.234+90.6565ZM119.679+89.0862C121.132+89.0862+122.21+89.43+122.913+90.1175C123.617+90.805+123.968+91.9378+123.968+93.5159C123.968+94.2112+123.843+94.6956+123.593+94.969C123.343+95.2425+122.796+95.3792+121.953+95.3792L116.773+95.3792C116.788+96.6526+117.044+97.6526+117.54+98.3792C118.037+99.1058+118.913+99.469+120.171+99.469C121.343+99.469+122.433+99.1644+123.441+98.555C123.777+98.8909+123.945+99.2464+123.945+99.6214C123.945+100.145+123.513+100.512+122.65+100.723C121.787+100.934+120.812+101.039+119.726+101.039C117.726+101.039+116.29+100.616+115.419+99.7679C114.548+98.9202+114.113+97.4925+114.113+95.4847C114.113+93.5081+114.603+91.9476+115.583+90.803C116.564+89.6585+117.929+89.0862+119.679+89.0862Z" opacity="1" fill="#4a2727"/>
<path d="M127.449+94.1487C127.449+90.844+127.433+88.7405+127.402+87.8382C127.371+86.9358+127.314+86.348+127.232+86.0745C127.15+85.8011+127.015+85.6253+126.828+85.5472C126.64+85.469+126.394+85.43+126.089+85.43C125.988+85.1878+125.937+84.9495+125.937+84.7151C125.937+84.473+126.037+84.3206+126.236+84.2581C126.435+84.1956+127.078+84.1644+128.163+84.1644C128.781+84.1644+129.199+84.1937+129.417+84.2523C129.636+84.3108+129.761+84.4202+129.792+84.5804C129.824+84.7405+129.839+85.0159+129.839+85.4065L129.839+95.2151C129.847+97.0901+129.878+98.5706+129.933+99.6565L131.234+99.6565C131.328+99.8597+131.374+100.078+131.374+100.313C131.374+100.524+131.331+100.668+131.246+100.746C131.16+100.825+130.996+100.864+130.753+100.864L126.089+100.864C125.988+100.614+125.937+100.379+125.937+100.16C125.937+99.9886+125.98+99.8616+126.066+99.7796C126.152+99.6976+126.292+99.6565+126.488+99.6565L127.355+99.6565C127.417+98.5706+127.449+96.7347+127.449+94.1487Z" opacity="1" fill="#4a2727"/>
<path d="M137.14+99.6565L138.851+99.6565C138.945+99.8597+138.992+100.078+138.992+100.313C138.992+100.524+138.949+100.668+138.863+100.746C138.777+100.825+138.613+100.864+138.371+100.864L133.296+100.864C133.195+100.614+133.144+100.379+133.144+100.16C133.144+99.9886+133.187+99.8616+133.273+99.7796C133.359+99.6976+133.499+99.6565+133.695+99.6565L134.562+99.6565C134.624+98.5706+134.656+97.2972+134.656+95.8362L134.656+90.762L133.285+90.762C133.191+90.4808+133.144+90.2073+133.144+89.9417C133.144+89.7464+133.187+89.6038+133.273+89.514C133.359+89.4241+133.503+89.3792+133.706+89.3792L134.656+89.3792C134.679+87.4183+135.074+86.0589+135.839+85.3011C136.605+84.5433+137.816+84.1644+139.472+84.1644C140.417+84.1644+141.136+84.2425+141.628+84.3987C142.121+84.555+142.367+84.844+142.367+85.2659C142.367+85.6409+142.206+86.0355+141.886+86.4495C140.574+85.9339+139.519+85.6761+138.722+85.6761C138.035+85.6761+137.583+85.9046+137.369+86.3616C137.154+86.8187+137.046+87.6058+137.046+88.723L137.046+89.3792L140.292+89.3792C140.386+89.637+140.433+89.9105+140.433+90.1995C140.433+90.4261+140.39+90.5765+140.304+90.6507C140.218+90.7249+140.046+90.762+139.788+90.762L137.046+90.762L137.046+95.8362C137.046+97.2972+137.078+98.5706+137.14+99.6565Z" opacity="1" fill="#4a2727"/>
<path d="M145.788+101.098C145.195+101.098+144.759+100.983+144.482+100.752C144.204+100.522+144.066+100.188+144.066+99.7503C144.066+99.3128+144.218+98.9769+144.523+98.7425C144.828+98.5081+145.249+98.3909+145.788+98.3909C146.382+98.3909+146.82+98.5081+147.101+98.7425C147.382+98.9769+147.523+99.3128+147.523+99.7503C147.523+100.188+147.371+100.522+147.066+100.752C146.761+100.983+146.335+101.098+145.788+101.098ZM145.788+91.969C145.195+91.969+144.759+91.8538+144.482+91.6233C144.204+91.3929+144.066+91.0589+144.066+90.6214C144.066+90.1839+144.218+89.848+144.523+89.6136C144.828+89.3792+145.249+89.262+145.788+89.262C146.382+89.262+146.82+89.3792+147.101+89.6136C147.382+89.848+147.523+90.1839+147.523+90.6214C147.523+91.0589+147.371+91.3929+147.066+91.6233C146.761+91.8538+146.335+91.969+145.788+91.969Z" opacity="1" fill="#4a2727"/>
<path d="M154.894+101.098C154.3+101.098+153.865+100.983+153.587+100.752C153.31+100.522+153.171+100.188+153.171+99.7503C153.171+99.3128+153.324+98.9769+153.628+98.7425C153.933+98.5081+154.355+98.3909+154.894+98.3909C155.488+98.3909+155.925+98.5081+156.206+98.7425C156.488+98.9769+156.628+99.3128+156.628+99.7503C156.628+100.188+156.476+100.522+156.171+100.752C155.867+100.983+155.441+101.098+154.894+101.098ZM154.894+91.969C154.3+91.969+153.865+91.8538+153.587+91.6233C153.31+91.3929+153.171+91.0589+153.171+90.6214C153.171+90.1839+153.324+89.848+153.628+89.6136C153.933+89.3792+154.355+89.262+154.894+89.262C155.488+89.262+155.925+89.3792+156.206+89.6136C156.488+89.848+156.628+90.1839+156.628+90.6214C156.628+91.0589+156.476+91.3929+156.171+91.6233C155.867+91.8538+155.441+91.969+154.894+91.969Z" opacity="1" fill="#4a2727"/>
</g>
<g opacity="1">
<path d="M170.72+74.7003C168.032+74.7687+166.066+75.3839+164.824+76.546C163.582+77.7082+162.962+79.3032+162.962+81.3312C162.962+83.382+163.594+84.9827+164.859+86.1334C166.123+87.2842+168.077+88.3608+170.72+89.3634L170.72+74.7003ZM172.6+124.432C172.008+124.728+171.108+124.876+169.9+124.876C169.125+124.876+168.613+124.705+168.362+124.363C168.111+124.022+167.986+123.395+167.986+122.484L167.986+117.835C163.839+117.79+160.637+117.459+158.381+116.844C156.126+116.229+154.998+115.055+154.998+113.323C154.998+111.751+155.67+110.361+157.014+109.153C160.432+111.045+164.089+112.195+167.986+112.606L167.986+96.0285C163.315+94.5246+160.073+92.7871+158.262+90.8161C156.45+88.845+155.545+86.2417+155.545+83.006C155.545+78.9956+156.929+75.8738+159.697+73.6408C162.466+71.4077+165.855+70.1886+169.866+69.9835L169.866+63.4552C170.777+63.1818+171.609+63.0451+172.361+63.0451C173.295+63.0451+173.882+63.2103+174.121+63.5407C174.36+63.8711+174.48+64.3667+174.48+65.0275L174.48+69.8468C178.582+69.9152+181.544+70.2171+183.367+70.7526C185.19+71.2881+186.101+72.3875+186.101+74.0509C186.101+75.5776+185.486+76.9334+184.255+78.1183C180.86+76.5688+177.602+75.5776+174.48+75.1447L174.48+90.5255C178.582+91.8699+181.823+93.4365+184.204+95.2252C186.585+97.014+187.776+100.005+187.776+104.197C187.776+108.345+186.415+111.552+183.692+113.819C180.969+116.086+177.271+117.368+172.6+117.664L172.6+124.432ZM171.746+97.2589L171.746+112.845C174.799+112.754+176.998+112.184+178.342+111.136C179.687+110.088+180.359+108.424+180.359+106.146C180.359+103.502+179.47+101.554+177.693+100.301C175.916+99.0477+173.933+98.0337+171.746+97.2589Z" opacity="1" fill="#4a2727"/>
</g>
<g opacity="1">
<path d="M194.817+108.423C195.106+108.618+195.446+108.778+195.837+108.903C196.227+109.028+196.661+109.091+197.137+109.091C198.177+109.091+198.895+108.774+199.294+108.142C199.692+107.509+199.891+106.415+199.891+104.86C199.891+103.165+199.682+101.968+199.264+101.269C198.846+100.569+198.173+100.22+197.243+100.22C196.782+100.22+196.362+100.31+195.983+100.489C195.604+100.669+195.315+100.972+195.116+101.398C194.917+101.823+194.817+102.419+194.817+103.185L194.817+108.423ZM194.208+98.8252C194.255+99.1534+194.255+99.4971+194.208+99.8565C194.786+99.4971+195.407+99.2061+196.071+98.9834C196.735+98.7608+197.481+98.6495+198.309+98.6495C199.731+98.6495+200.79+99.0401+201.485+99.8213C202.18+100.603+202.528+101.903+202.528+103.724C202.528+106.083+202.057+107.829+201.116+108.962C200.175+110.095+198.782+110.661+196.938+110.661C196.438+110.661+196.016+110.634+195.673+110.579C195.329+110.524+195.044+110.462+194.817+110.392C194.825+111.884+194.856+113.212+194.911+114.376L196.446+114.376C196.54+114.579+196.587+114.798+196.587+115.032C196.587+115.243+196.544+115.388+196.458+115.466C196.372+115.544+196.208+115.583+195.966+115.583L191.126+115.583C191.024+115.333+190.973+115.099+190.973+114.88C190.973+114.708+191.016+114.581+191.102+114.499C191.188+114.417+191.329+114.376+191.524+114.376L192.333+114.376C192.395+113.212+192.427+111.634+192.427+109.642L192.427+104.649C192.427+102.345+192.337+101.009+192.157+100.642C191.977+100.274+191.634+100.091+191.126+100.091C191.024+99.8721+190.973+99.6455+190.973+99.4112C190.973+99.2002+191.055+99.0655+191.22+99.0069C191.384+98.9483+192.38+98.8877+194.208+98.8252Z" opacity="1" fill="#4a2727"/>
<path d="M205.95+103.712C205.95+100.407+205.934+98.3038+205.903+97.4014C205.872+96.4991+205.815+95.9112+205.733+95.6377C205.651+95.3643+205.516+95.1885+205.329+95.1104C205.141+95.0323+204.895+94.9932+204.591+94.9932C204.489+94.751+204.438+94.5127+204.438+94.2784C204.438+94.0362+204.538+93.8838+204.737+93.8213C204.936+93.7588+205.579+93.7276+206.665+93.7276C207.282+93.7276+207.7+93.7569+207.919+93.8155C208.137+93.8741+208.262+93.9834+208.294+94.1436C208.325+94.3038+208.341+94.5791+208.341+94.9698L208.341+104.778C208.348+106.653+208.38+108.134+208.434+109.22L209.735+109.22C209.829+109.423+209.876+109.642+209.876+109.876C209.876+110.087+209.833+110.231+209.747+110.31C209.661+110.388+209.497+110.427+209.255+110.427L204.591+110.427C204.489+110.177+204.438+109.942+204.438+109.724C204.438+109.552+204.481+109.425+204.567+109.343C204.653+109.261+204.794+109.22+204.989+109.22L205.856+109.22C205.919+108.134+205.95+106.298+205.95+103.712Z" opacity="1" fill="#4a2727"/>
<path d="M218.794+109.489C218.137+109.872+217.464+110.163+216.772+110.362C216.081+110.562+215.403+110.661+214.739+110.661C213.684+110.661+212.899+110.413+212.384+109.917C211.868+109.421+211.61+108.685+211.61+107.708C211.61+106.513+212.036+105.599+212.887+104.966C213.739+104.333+215.055+104.017+216.837+104.017L218.559+104.017C218.512+102.642+218.315+101.685+217.968+101.146C217.62+100.606+217.005+100.337+216.122+100.337C215.653+100.337+215.204+100.384+214.774+100.478C214.548+100.931+214.413+101.173+214.37+101.204C214.327+101.235+214.102+101.304+213.696+101.409C213.29+101.515+213.007+101.495+212.846+101.351C212.686+101.206+212.522+100.942+212.354+100.56C212.186+100.177+212.102+99.8682+212.102+99.6338C212.102+99.4776+212.167+99.3565+212.296+99.2705C212.425+99.1846+212.95+99.0791+213.872+98.9541C214.794+98.8291+215.774+98.7666+216.813+98.7666C218.196+98.7666+219.218+99.0049+219.878+99.4815C220.538+99.958+220.868+100.833+220.868+102.106L220.868+105.716C220.868+107.388+220.94+108.407+221.085+108.774C221.229+109.142+221.47+109.29+221.805+109.22C221.899+109.392+221.946+109.56+221.946+109.724C221.946+109.989+221.78+110.192+221.448+110.333C221.116+110.474+220.669+110.544+220.106+110.544C219.833+110.544+219.624+110.511+219.479+110.444C219.335+110.378+219.106+110.06+218.794+109.489ZM218.559+105.528C217.887+105.411+217.192+105.353+216.473+105.353C215.583+105.353+214.96+105.501+214.604+105.798C214.249+106.095+214.071+106.564+214.071+107.204C214.071+107.829+214.229+108.3+214.546+108.616C214.862+108.933+215.352+109.091+216.016+109.091C216.532+109.091+217.012+108.989+217.458+108.786C217.903+108.583+218.198+108.3+218.343+107.937C218.487+107.573+218.559+107.001+218.559+106.22L218.559+105.528Z" opacity="1" fill="#4a2727"/>
<path d="M226.177+96.8213C225.669+96.8213+225.294+96.7159+225.052+96.5049C224.809+96.294+224.688+95.9893+224.688+95.5909C224.696+95.1612+224.852+94.8174+225.157+94.5596C225.462+94.3018+225.891+94.1729+226.446+94.1729C226.993+94.1729+227.384+94.2842+227.618+94.5069C227.852+94.7295+227.97+95.0284+227.97+95.4034C227.97+95.8252+227.825+96.167+227.536+96.4288C227.247+96.6905+226.794+96.8213+226.177+96.8213ZM227.841+109.22L229.083+109.22C229.184+109.423+229.235+109.642+229.235+109.876C229.235+110.087+229.192+110.231+229.106+110.31C229.02+110.388+228.852+110.427+228.602+110.427L223.997+110.427C223.903+110.177+223.856+109.942+223.856+109.724C223.856+109.552+223.897+109.425+223.979+109.343C224.061+109.261+224.204+109.22+224.407+109.22L225.274+109.22C225.329+108.134+225.356+106.86+225.356+105.399C225.356+103.618+225.343+102.429+225.315+101.831C225.288+101.233+225.223+100.821+225.122+100.595C225.02+100.368+224.878+100.228+224.694+100.173C224.511+100.118+224.282+100.091+224.009+100.091C223.907+99.9268+223.856+99.7354+223.856+99.5166C223.856+99.1963+224.009+99.001+224.313+98.9307C224.618+98.8604+225.208+98.8252+226.083+98.8252C226.7+98.8252+227.118+98.8545+227.337+98.9131C227.555+98.9717+227.68+99.0811+227.712+99.2413C227.743+99.4014+227.759+99.6768+227.759+100.067L227.759+105.399C227.759+106.86+227.786+108.134+227.841+109.22Z" opacity="1" fill="#4a2727"/>
<path d="M234.462+100.208C235.235+99.6924+235.999+99.3135+236.753+99.0713C237.507+98.8291+238.18+98.708+238.774+98.708C239.813+98.708+240.596+98.9483+241.124+99.4288C241.651+99.9092+241.915+100.825+241.915+102.177C241.915+106.38+241.975+108.606+242.096+108.856C242.218+109.106+242.497+109.228+242.934+109.22C243.02+109.446+243.063+109.673+243.063+109.899C243.063+110.11+242.997+110.251+242.864+110.321C242.731+110.392+242.485+110.427+242.126+110.427C241.04+110.427+240.376+110.413+240.134+110.386C239.891+110.358+239.727+110.276+239.641+110.14C239.555+110.003+239.512+109.774+239.512+109.454L239.512+104.403C239.512+102.794+239.343+101.724+239.003+101.192C238.663+100.661+238.114+100.396+237.356+100.396C236.708+100.396+236.147+100.579+235.675+100.946C235.202+101.314+234.966+101.974+234.966+102.927L234.966+105.399C234.966+106.782+234.993+108.056+235.048+109.22L236.348+109.22C236.442+109.423+236.489+109.642+236.489+109.876C236.489+110.087+236.446+110.231+236.36+110.31C236.274+110.388+236.11+110.427+235.868+110.427L231.262+110.427C231.161+110.177+231.11+109.942+231.11+109.724C231.11+109.552+231.153+109.425+231.239+109.343C231.325+109.261+231.466+109.22+231.661+109.22L232.47+109.22C232.532+107.978+232.563+106.454+232.563+104.649C232.563+102.345+232.473+101.009+232.294+100.642C232.114+100.274+231.77+100.091+231.262+100.091C231.161+99.8721+231.11+99.6455+231.11+99.4112C231.11+99.2002+231.192+99.0655+231.356+99.0069C231.52+98.9483+232.555+98.8877+234.462+98.8252C234.509+99.1846+234.509+99.6455+234.462+100.208Z" opacity="1" fill="#4a2727"/>
<path d="M250.505+102.915C252.223+102.915+253.427+102.669+254.114+102.177C254.802+101.685+255.145+100.853+255.145+99.6807C255.145+98.5557+254.821+97.6846+254.173+97.0674C253.524+96.4502+252.462+96.1416+250.985+96.1416C250.493+96.1416+250.048+96.1807+249.649+96.2588C249.587+96.9307+249.555+98.5127+249.555+101.005L249.555+102.915L250.505+102.915ZM246.872+95.6377L245.512+95.6377C245.419+95.3721+245.372+95.126+245.372+94.8995C245.372+94.7354+245.413+94.6163+245.495+94.542C245.577+94.4678+245.712+94.4307+245.899+94.4307L250.587+94.4307C253.516+94.4307+255.487+94.7901+256.499+95.5088C257.511+96.2276+258.016+97.4034+258.016+99.0362C258.016+100.731+257.411+102.048+256.2+102.985C254.989+103.923+252.973+104.392+250.153+104.392L249.555+104.392C249.571+106.798+249.602+108.407+249.649+109.22L251.442+109.22C251.536+109.454+251.583+109.681+251.583+109.899C251.583+110.095+251.544+110.231+251.466+110.31C251.387+110.388+251.251+110.427+251.055+110.427L245.43+110.427C245.329+110.161+245.278+109.915+245.278+109.689C245.278+109.524+245.319+109.405+245.401+109.331C245.483+109.257+245.618+109.22+245.805+109.22L246.872+109.22C246.934+108.134+246.966+105.349+246.966+100.864C246.966+98.4659+246.934+96.7237+246.872+95.6377Z" opacity="1" fill="#4a2727"/>
<path d="M260.302+94.4307L265.235+94.4307C265.329+94.6651+265.376+94.8916+265.376+95.1104C265.376+95.3057+265.337+95.4424+265.259+95.5205C265.18+95.5987+265.044+95.6377+264.848+95.6377L264.016+95.6377C263.962+96.7237+263.934+98.5791+263.934+101.204L270.884+101.204C270.876+98.5791+270.845+96.7237+270.79+95.6377L269.583+95.6377C269.481+95.3721+269.43+95.126+269.43+94.8995C269.43+94.7354+269.471+94.6163+269.554+94.542C269.636+94.4678+269.77+94.4307+269.958+94.4307L274.891+94.4307C274.985+94.6651+275.032+94.8916+275.032+95.1104C275.032+95.3057+274.993+95.4424+274.915+95.5205C274.837+95.5987+274.7+95.6377+274.505+95.6377L273.555+95.6377C273.501+96.7237+273.473+98.5127+273.473+101.005C273.473+105.396+273.505+108.134+273.567+109.22L274.891+109.22C274.985+109.454+275.032+109.681+275.032+109.899C275.032+110.095+274.993+110.231+274.915+110.31C274.837+110.388+274.7+110.427+274.505+110.427L269.583+110.427C269.481+110.161+269.43+109.915+269.43+109.689C269.43+109.524+269.471+109.405+269.554+109.331C269.636+109.257+269.77+109.22+269.958+109.22L270.79+109.22C270.845+108.298+270.876+106.13+270.884+102.716L263.934+102.716C263.942+106.122+263.973+108.29+264.028+109.22L265.235+109.22C265.329+109.454+265.376+109.681+265.376+109.899C265.376+110.095+265.337+110.231+265.259+110.31C265.18+110.388+265.044+110.427+264.848+110.427L259.927+110.427C259.825+110.161+259.774+109.915+259.774+109.689C259.774+109.524+259.815+109.405+259.897+109.331C259.979+109.257+260.114+109.22+260.302+109.22L261.251+109.22C261.313+108.134+261.345+105.349+261.345+100.864C261.337+98.4659+261.305+96.7237+261.251+95.6377L259.927+95.6377C259.825+95.3721+259.774+95.126+259.774+94.8995C259.774+94.7354+259.815+94.6163+259.897+94.542C259.979+94.4678+260.114+94.4307+260.302+94.4307Z" opacity="1" fill="#4a2727"/>
<path d="M282.602+102.915C284.321+102.915+285.524+102.669+286.212+102.177C286.899+101.685+287.243+100.853+287.243+99.6807C287.243+98.5557+286.919+97.6846+286.27+97.0674C285.622+96.4502+284.559+96.1416+283.083+96.1416C282.591+96.1416+282.145+96.1807+281.747+96.2588C281.684+96.9307+281.653+98.5127+281.653+101.005L281.653+102.915L282.602+102.915ZM278.97+95.6377L277.61+95.6377C277.516+95.3721+277.47+95.126+277.47+94.8995C277.47+94.7354+277.511+94.6163+277.593+94.542C277.675+94.4678+277.809+94.4307+277.997+94.4307L282.684+94.4307C285.614+94.4307+287.585+94.7901+288.596+95.5088C289.608+96.2276+290.114+97.4034+290.114+99.0362C290.114+100.731+289.509+102.048+288.298+102.985C287.087+103.923+285.071+104.392+282.251+104.392L281.653+104.392C281.669+106.798+281.7+108.407+281.747+109.22L283.54+109.22C283.634+109.454+283.68+109.681+283.68+109.899C283.68+110.095+283.641+110.231+283.563+110.31C283.485+110.388+283.348+110.427+283.153+110.427L277.528+110.427C277.427+110.161+277.376+109.915+277.376+109.689C277.376+109.524+277.417+109.405+277.499+109.331C277.581+109.257+277.716+109.22+277.903+109.22L278.97+109.22C279.032+108.134+279.063+105.349+279.063+100.864C279.063+98.4659+279.032+96.7237+278.97+95.6377Z" opacity="1" fill="#4a2727"/>
</g>
</g>
</g>
</svg>
