<?xml version="1.0" encoding="UTF-8" standalone="no"?>
<svg
   xmlns:dc="http://purl.org/dc/elements/1.1/"
   xmlns:cc="http://creativecommons.org/ns#"
   xmlns:rdf="http://www.w3.org/1999/02/22-rdf-syntax-ns#"
   xmlns:svg="http://www.w3.org/2000/svg"
   xmlns="http://www.w3.org/2000/svg"
   xmlns:sodipodi="http://sodipodi.sourceforge.net/DTD/sodipodi-0.dtd"
   xmlns:inkscape="http://www.inkscape.org/namespaces/inkscape"
   width="210mm"
   height="297mm"
   viewBox="0 0 210 297"
   version="1.1"
   id="svg116"
   inkscape:version="1.0.2 (e86c870879, 2021-01-15, custom)"
   sodipodi:docname="Zeichnung.svg">
  <defs
     id="defs110">
    <inkscape:perspective
       sodipodi:type="inkscape:persp3d"
       inkscape:vp_x="-2.2585565 : 109.08511 : 1"
       inkscape:vp_y="0 : 1000 : 0"
       inkscape:vp_z="210 : 148.5 : 1"
       inkscape:persp3d-origin="105 : 99 : 1"
       id="perspective120" />
    <meshgradient
       inkscape:collect="always"
       id="meshgradient180"
       gradientUnits="userSpaceOnUse"
       x="586.10492"
       y="242.98886">
      <meshrow
         id="meshrow182">
        <meshpatch
           id="meshpatch184">
          <stop
             path="c 27.4504,0  54.9007,0  82.3511,0"
             style="stop-color:#ffffff;stop-opacity:1"
             id="stop186" />
          <stop
             path="c 0,20.7156  0,41.4311  0,62.1467"
             style="stop-color:#000000;stop-opacity:1"
             id="stop188" />
          <stop
             path="c -27.4504,0  -54.9007,0  -82.3511,0"
             style="stop-color:#ffffff;stop-opacity:1"
             id="stop190" />
          <stop
             path="c 0,-20.7156  0,-41.4311  0,-62.1467"
             style="stop-color:#000000;stop-opacity:1"
             id="stop192" />
        </meshpatch>
      </meshrow>
    </meshgradient>
  </defs>
  <sodipodi:namedview
     id="base"
     pagecolor="#ffffff"
     bordercolor="#666666"
     borderopacity="1.0"
     inkscape:pageopacity="0.0"
     inkscape:pageshadow="2"
     inkscape:zoom="0.35"
     inkscape:cx="400"
     inkscape:cy="560"
     inkscape:document-units="mm"
     inkscape:current-layer="layer1"
     inkscape:document-rotation="0"
     showgrid="false"
     inkscape:window-width="2560"
     inkscape:window-height="1377"
     inkscape:window-x="-8"
     inkscape:window-y="-8"
     inkscape:window-maximized="1" />
  <metadata
     id="metadata113">
    <rdf:RDF>
      <cc:Work
         rdf:about="">
        <dc:format>image/svg+xml</dc:format>
        <dc:type
           rdf:resource="http://purl.org/dc/dcmitype/StillImage" />
        <dc:title></dc:title>
      </cc:Work>
    </rdf:RDF>
  </metadata>
  <g
     inkscape:label="Ebene 1"
     inkscape:groupmode="layer"
     id="layer1">
    <rect
       style="fill:#0000ff;fill-rule:evenodd;stroke-width:0.264583"
       id="rect118"
       width="104.86712"
       height="75.729485"
       x="28.40719"
       y="75.391846" />
    <g
       sodipodi:type="inkscape:box3d"
       id="g122"
       style="fill-rule:evenodd;stroke:none;stroke-linejoin:round"
       inkscape:perspectiveID="#perspective120"
       inkscape:corner0="1.9750628 : 0.089143015 : 0 : 1"
       inkscape:corner7="0.55240517 : -0.16211594 : 0.25 : 1">
      <path
         sodipodi:type="inkscape:box3dside"
         id="path134"
         style="fill:#e9e9ff;fill-rule:evenodd;stroke:none;stroke-linejoin:round"
         inkscape:box3dsidetype="11"
         d="M 47.453095,160.34593 86.691033,138.58546 V 277.98749 L 47.453095,238.25417 Z"
         points="86.691033,138.58546 86.691033,277.98749 47.453095,238.25417 47.453095,160.34593 " />
      <path
         sodipodi:type="inkscape:box3dside"
         id="path124"
         style="fill:#353564;fill-rule:evenodd;stroke:none;stroke-linejoin:round"
         inkscape:box3dsidetype="6"
         d="m 33.79398,161.34137 v 84.45501 l 13.659115,-7.54221 v -77.90824 z"
         points="33.79398,245.79638 47.453095,238.25417 47.453095,160.34593 33.79398,161.34137 " />
      <path
         sodipodi:type="inkscape:box3dside"
         id="path132"
         style="fill:#afafde;fill-rule:evenodd;stroke:none;stroke-linejoin:round"
         inkscape:box3dsidetype="13"
         d="M 33.79398,245.79638 66.833302,298.84022 86.691033,277.98749 47.453095,238.25417 Z"
         points="66.833302,298.84022 86.691033,277.98749 47.453095,238.25417 33.79398,245.79638 " />
      <path
         sodipodi:type="inkscape:box3dside"
         id="path126"
         style="fill:#4d4d9f;fill-rule:evenodd;stroke:none;stroke-linejoin:round"
         inkscape:box3dsidetype="5"
         d="m 33.79398,161.34137 33.039322,-24.35255 19.857731,1.59664 -39.237938,21.76047 z"
         points="66.833302,136.98882 86.691033,138.58546 47.453095,160.34593 33.79398,161.34137 " />
      <path
         sodipodi:type="inkscape:box3dside"
         id="path130"
         style="fill:#d7d7ff;fill-rule:evenodd;stroke:none;stroke-linejoin:round"
         inkscape:box3dsidetype="14"
         d="m 66.833302,136.98882 v 161.8514 L 86.691033,277.98749 V 138.58546 Z"
         points="66.833302,298.84022 86.691033,277.98749 86.691033,138.58546 66.833302,136.98882 " />
      <path
         sodipodi:type="inkscape:box3dside"
         id="path128"
         style="fill:#8686bf;fill-rule:evenodd;stroke:none;stroke-linejoin:round"
         inkscape:box3dsidetype="3"
         d="m 33.79398,161.34137 33.039322,-24.35255 v 161.8514 L 33.79398,245.79638 Z"
         points="66.833302,136.98882 66.833302,298.84022 33.79398,245.79638 33.79398,161.34137 " />
    </g>
    <path
       sodipodi:type="spiral"
       style="fill:none;fill-rule:evenodd;stroke:#000000;stroke-width:0.264583"
       id="path136"
       sodipodi:cx="-252.04324"
       sodipodi:cy="129.55598"
       sodipodi:expansion="1"
       sodipodi:revolution="3"
       sodipodi:radius="166.25389"
       sodipodi:argument="-18.329515"
       sodipodi:t0="0"
       d="m -252.04324,129.55598 c 7.23371,4.14214 -2.01466,11.7945 -6.88451,12.02292 -13.19699,0.61901 -19.5302,-14.77901 -17.16132,-25.79193 4.23736,-19.699537 26.88035,-28.026036 44.69935,-22.299729 26.1501,8.403589 36.71507,39.124689 27.43813,63.606779 -12.36469,32.63077 -51.41699,45.48289 -82.51419,32.57654 -39.13266,-16.24133 -54.29077,-63.7315 -37.71495,-101.421623 20.07554,-45.64779 76.05836,-63.121694 120.32904,-42.853353 52.17147,23.885539 71.96708,88.392906 47.99176,139.236466 -27.68045,58.70089 -100.73259,80.82211 -158.14388,53.13016 -65.23437,-31.46534 -89.68389,-113.07588 -58.26858,-177.051304 35.24324,-71.770762 125.42181,-98.550574 195.95873,-63.4069796 78.309355,39.0160506 107.42094,137.7697236 68.54539,214.8661536" />
    <path
       style="fill:none;stroke:#000000;stroke-width:0.264583px;stroke-linecap:butt;stroke-linejoin:miter;stroke-opacity:1"
       d="m 169.33333,24.989108 c -9.58093,-15.5250459 -31.10581,10.543452 -25.19459,20.56231 6.49782,11.013048 18.51388,5.96679 24.02637,-2.211245 3.22372,-4.782529 4.39158,-9.78386 2.4922,-10.303952 -9.66648,-2.646899 -18.12554,25.668856 -12.14947,32.917931 5.83464,7.077525 18.26296,-2.455529 22.07933,-5.699087 1.60151,-1.361128 2.8766,-3.088976 4.04983,-4.832827 0.71945,-1.069363 1.93038,-4.529804 0.89563,-3.761398 -8.72019,6.475679 -12.34286,21.712798 -11.76007,31.8693 0.80382,14.008333 13.97844,1.305025 16.43295,-3.875379 1.10896,-2.340543 2.94445,-8.726156 0.54517,-7.750759 -7.99068,3.248506 -16.7431,43.025108 -7.0872,38.776598 4.38403,-1.92894 10.6323,-18.31674 3.46572,-19.696052 -5.74774,-1.106236 -14.81553,21.189732 -12.77253,25.851062 1.30411,2.97547 9.41901,3.61202 9.03423,-0.5927"
       id="path138" />
    <path
       style="fill:none;stroke:#000000;stroke-width:0.264583px;stroke-linecap:butt;stroke-linejoin:miter;stroke-opacity:1"
       d="m 161.93461,162.95263 c 3.97195,0.72948 -43.45774,75 -43.45774,75 0,0 62.92806,18.51064 62.22713,17.64438 -0.70094,-0.86626 -2.1028,-36.2918 -2.1028,-36.2918 0,0 -39.8752,21.06383 -34.18987,16.39058 5.68533,-4.67325 28.89394,-35.42553 28.89394,-35.42553 0,0 -2.37537,-18.05471 1.32399,-17.43921 3.69936,0.6155 18.6915,-24.89362 13.04511,-29.27052 -5.64639,-4.37689 -9.61834,-16.55015 -18.3021,-16.75531 -8.68376,-0.20517 -5.1791,-3.2371 -20.63853,5.53951 -15.45943,8.77661 -24.02637,41.78571 -27.72573,47.55319 -3.69936,5.76748 -5.64639,2.09726 -5.52957,12.90274 0.11682,10.80547 2.33644,22.18085 3.03737,36.15501 0.70093,13.97416 1.51868,30.98023 -2.06385,34.74163 -3.58254,3.76142 4.01088,5.97265 4.01088,5.97265 0,0 16.08248,-2.34802 24.14319,-4.12612 8.06071,-1.77814 20.48277,6.10941 22.85815,1.45896 2.37538,-4.65047 11.95477,1.9149 14.83638,-11.3298 2.88161,-13.24467 5.33487,-32.62157 6.65885,-45.61549 1.32398,-12.99393 9.61834,-25.14438 2.60902,-27.5608 -7.00931,-2.41641 -2.64796,-0.6155 -13.23981,-1.00304 -10.59185,-0.38753 -18.1074,4.17174 -37.46089,4.24013 -19.35349,0.0684 -27.68679,6.65653 -35.9422,5.83586 -8.255415,-0.82067 -13.473461,-5.49392 -5.334867,-17.21124 8.138587,-11.71733 11.915827,-32.18843 33.683647,-33.23707 21.76781,-1.04865 28.77712,-10.64591 26.44068,-24.05017 -2.33643,-13.40425 -2.53113,-37.72796 -7.78812,-52.363217 -5.25698,-14.635258 -11.0202,-26.101823 -19.58714,-31.641338 -8.56694,-5.539512 -21.68993,-4.308509 -24.5326,-3.465044"
       id="path140" />
    <path
       style="fill:#000000;fill-opacity:1;fill-rule:nonzero;stroke:none;stroke-width:0.264583"
       id="path142"
       d="m -209.06549,263.27488 c -4.17346,6.29971 -7.02287,13.41023 -9.06504,20.66312 -0.60913,2.16336 -1.07825,4.36372 -1.61737,6.54558 -0.37037,2.16244 -0.85918,4.30792 -1.11111,6.48732 -0.88307,7.63944 -0.55427,16.29058 3.74496,22.9816 0.93108,1.44907 2.24842,2.60987 3.37262,3.9148 3.50032,2.1636 4.54723,3.46736 8.86697,3.53772 4.25695,0.0693 7.43367,-1.53183 10.96858,-3.79902 6.88697,-4.41712 7.97741,-6.0315 13.72126,-11.62897 9.26835,-9.66967 17.37476,-20.38501 24.41118,-31.77238 4.62567,-7.48596 5.89959,-10.15934 10.00478,-17.85063 3.1579,-6.39619 6.56089,-12.7223 9.06153,-19.42103 0.36503,-0.97785 0.73635,-1.96512 0.92378,-2.99191 0.0751,-0.41139 0.17172,-0.97871 -0.15029,-1.24553 -0.31258,-0.25901 -0.80816,0.0777 -1.21224,0.11652 -1.45704,0.98308 -3.00511,1.84316 -4.37112,2.94925 -1.22145,0.98905 -4.58373,5.06284 -5.33702,6.06045 -2.48708,3.29371 -4.75761,6.78411 -6.64151,10.46053 -1.1809,2.30451 -2.15287,4.71022 -3.2293,7.06533 -4.06265,10.08473 -7.18711,20.56612 -9.29668,31.23449 -1.20156,6.07644 -1.28066,7.6794 -1.99897,13.70197 -0.62582,4.70194 -0.36709,9.43428 -0.41843,14.1531 -0.006,0.55914 -0.59904,1.94921 -0.11241,1.67375 3.8132,-2.15847 2.52423,-2.72878 1.06902,-4.74856 -2.43672,-3.41706 -5.3945,-6.41328 -7.8555,-9.81236 -1.63459,-2.25766 -1.95135,-2.90912 -3.32308,-5.23073 -0.64639,-1.45037 -1.81708,-3.48536 -0.17226,-4.79865 0.53163,-0.42447 1.20787,-1.27433 1.8061,-0.95041 0.52246,0.2829 -0.8601,0.81987 -1.29015,1.22979 1.34603,-0.45379 2.69205,-0.9076 4.03808,-1.36142 7.14959,-2.26607 3.57763,-1.2846 10.71066,-2.96325 0,0 0.18086,-0.13684 0.18086,-0.13684 v 0 c -5.72395,0.865 -3.02473,0.57814 -8.08846,0.94332 -5.26322,1.12477 -3.20113,0.41066 -9.9853,3.99933 -1.13374,0.59973 -2.25846,1.18036 -2.42769,2.59189 -0.16355,1.36411 0.74351,2.63324 1.3012,3.73893 3.60295,5.1539 7.70015,9.91198 11.64183,14.80489 1.7392,2.25079 1.67466,3.26054 5.68675,1.01296 0.45452,-0.25461 -0.10266,-1.03698 -0.14136,-1.55652 -0.34544,-4.63711 -0.3744,-9.28314 0.0673,-13.91983 0.24199,-2.18353 0.4233,-4.3746 0.72596,-6.55053 1.82391,-13.11259 5.42337,-25.97478 10.43177,-38.21787 1.10753,-2.35943 2.11984,-4.76596 3.32257,-7.07831 1.71632,-3.29974 4.26407,-7.35274 6.54055,-10.36458 0.91432,-1.20967 1.9136,-2.35455 2.93101,-3.47889 0.81271,-0.89812 1.84708,-1.60096 2.55506,-2.58376 0.12535,-0.17401 -0.42592,-0.0508 -0.63887,-0.0762 0.34015,-0.18567 0.65105,-0.67414 1.02047,-0.55703 0.33541,0.10632 0.3836,0.64273 0.35653,0.99354 -0.0746,0.96685 -0.35847,1.91093 -0.6519,2.83519 -2.10902,6.6432 -5.43211,12.8419 -8.42043,19.10444 -4.11889,7.74654 -5.31314,10.30037 -9.99318,17.83076 -7.04946,11.3429 -15.14939,22.03736 -24.3609,31.71529 -5.00558,4.82002 -9.9916,10.58933 -16.77429,13.00173 -3.21552,1.14368 -6.68616,1.21557 -9.88993,-0.005 -1.51239,-0.57624 -2.77499,-1.66637 -4.16248,-2.49957 -1.13056,-1.28429 -2.45118,-2.42353 -3.39166,-3.85289 -4.3609,-6.62773 -4.70183,-15.21976 -3.82782,-22.83285 0.24945,-2.17282 0.7318,-4.31253 1.09769,-6.4688 0.54932,-2.183 1.02012,-4.38727 1.64796,-6.54902 2.14578,-7.38815 5.18166,-14.65104 9.73334,-20.89114 0,0 -1.98364,0.84701 -1.98364,0.84701 z" />
    <path
       style="fill:#000000;fill-opacity:1;fill-rule:nonzero;stroke:none;stroke-width:0.264583"
       id="path144"
       d="m -112.93489,246.49659 c -1.34636,0.88472 -2.7875,1.63977 -4.03908,2.65415 -1.97921,1.60411 -5.50147,6.17782 -6.71956,7.77489 -3.08581,4.04585 -7.69622,10.49284 -10.29779,14.68802 -1.90943,3.07907 -3.60769,6.28417 -5.41154,9.42626 -4.53402,9.22846 -8.59778,18.96012 -9.78681,29.28099 -0.64655,5.61213 -1.001,8.27796 2.60016,12.46603 0.85015,0.98869 2.15964,1.46187 3.23946,2.19278 0,0 0.19265,-0.11964 0.19265,-0.11964 v 0 c -0.76095,-0.90088 -1.91095,-1.58356 -2.28285,-2.70261 -0.93432,-2.81144 -0.39665,-11.38666 -0.10763,-13.60289 1.32685,-10.17445 4.91845,-19.81616 9.41535,-28.97963 1.57646,-3.03273 3.05001,-6.12124 4.72938,-9.09823 2.68112,-4.75276 6.10268,-9.93863 9.44437,-14.28963 7.63618,-9.9426 0.95276,-0.92514 7.2164,-7.92342 0.0664,-0.0742 -0.14783,-0.13329 -0.22174,-0.19994 0,0 2.02923,-1.56713 2.02923,-1.56713 z" />
    <path
       style="fill:#000000;fill-opacity:1;fill-rule:nonzero;stroke:none;stroke-width:0.264583"
       id="path146"
       d="m -111.34001,297.92054 c -5.3369,3.05157 -6.38452,4.12252 -9.49113,8.78583 -0.50253,0.75433 -2.56315,3.92287 -2.78028,5.14154 -0.0667,0.3745 0.27773,0.70829 0.41659,1.06241 0.55361,-0.0822 1.1683,0.0193 1.66083,-0.24646 2.32184,-1.25301 4.57545,-2.65562 6.67572,-4.25243 1.83783,-1.39729 3.33409,-4.77113 3.17005,-7.06557 -0.056,-0.78385 -0.42928,-1.51193 -0.64392,-2.26793 -0.51957,-0.57327 -0.89865,-1.31622 -1.55873,-1.71984 -4.50858,-2.75699 -11.12088,3.38764 -13.37262,5.57969 -2.06848,2.01361 -3.10941,7.24916 -3.79139,9.71296 -0.19254,4.48609 -1.01544,5.85089 1.58287,9.69274 0.7191,1.06326 1.90412,1.72191 2.85618,2.58287 0,0 0.19668,-0.11293 0.19668,-0.11293 v 0 c -0.20066,-1.25579 -0.55938,-2.49634 -0.60197,-3.76735 -0.11292,-3.3706 0.59892,-7.50054 1.04969,-10.80386 0.5535,-1.75554 0.92228,-3.58045 1.66051,-5.26666 0.66461,-1.51808 2.41858,-2.63086 2.52114,-4.28485 0.0472,-0.76155 -2.7225,0.89059 -2.27247,0.27445 0.85546,-1.1712 3.87182,-0.95274 4.96313,-0.42174 0.62355,0.30339 1.01553,0.94456 1.5233,1.41684 0.24101,0.6495 0.63862,1.2609 0.72303,1.9485 0.2154,1.75456 -0.43229,3.14018 -1.40254,4.55176 -0.50768,0.73858 -2.54893,1.57276 -1.77301,2.02133 0.93865,0.54266 1.91912,-1.05635 2.96813,-1.33043 0.46834,-0.12234 -0.7798,0.57373 -1.1697,0.86059 -0.18056,-0.14248 -0.53358,-0.19754 -0.54166,-0.42738 -0.0808,-2.2987 2.62363,-5.78353 3.94234,-7.4041 0.66391,-0.81587 2.32477,-1.27979 2.14343,-2.3159 -0.14872,-0.84974 -1.5765,0.70088 -2.36475,1.05135 0,0 3.71055,-2.99543 3.71055,-2.99543 z" />
    <path
       style="fill:#000000;fill-opacity:1;fill-rule:nonzero;stroke:none;stroke-width:0.264583"
       id="path148"
       d="m -108.07728,311.28123 c 3.77571,6.12169 11.305935,8.22116 17.708862,10.37735 4.50886,1.32588 9.439053,2.76159 14.145503,1.32665 2.456135,-0.74885 5.697813,-3.53536 7.129127,-5.27375 0.771104,-0.93655 1.097126,-2.16406 1.64569,-3.2461 -0.06704,-0.86484 0.215114,-1.83345 -0.201105,-2.5945 -1.185177,-2.1671 -4.150233,-1.5403 -5.884979,-1.09183 -6.9255,1.79038 -16.467672,8.61129 -22.039003,12.11792 -5.293235,3.2576 -9.783525,7.6459 -14.940155,11.08757 -0.88524,0.59082 -1.8489,1.05474 -2.77335,1.58211 0,0 -0.1765,0.14239 -0.1765,0.14239 v 0 c 7.85713,-4.24928 15.229551,-9.26473 22.407504,-14.57764 0.850804,-0.67617 1.633807,-1.44782 2.552417,-2.02856 3.169208,-2.00353 7.563492,-4.4351 11.265058,-5.56273 1.682544,-0.51258 4.29509,-1.23269 5.837759,0.34465 0.512847,0.52437 0.540094,1.3639 0.810141,2.04583 -0.23019,1.23309 -0.412689,3.63847 -1.542854,4.6191 -3.530963,3.06372 -8.08173,3.51044 -12.390554,2.03295 -1.455164,-0.499 -2.753892,-1.37186 -4.130837,-2.0578 -2.534417,-1.63097 -5.044241,-3.30006 -7.585469,-4.9204 -2.936168,-1.87214 -6.097925,-3.62027 -8.327785,-6.37019 0,0 -3.50947,2.04698 -3.50947,2.04698 z" />
    <path
       style="fill:#000000;fill-opacity:1;fill-rule:nonzero;stroke:none;stroke-width:0.264583"
       id="path150"
       d="m -56.401678,321.90803 c -3.837811,-1.2637 -7.908907,-0.32998 -11.251761,1.85952 -2.504712,1.64055 -5.035084,3.28094 -7.278407,5.26399 -0.954712,0.84394 -1.471501,2.08074 -2.207252,3.12113 -0.291573,0.8249 -0.806045,1.60245 -0.874718,2.47468 -0.132683,1.68521 1.396876,1.51283 2.377874,0.94094 6.791375,-3.95907 6.909821,-4.45228 10.905628,-9.38335 0.466727,-0.42256 1.951749,-1.5713 1.40018,-1.26772 -1.697114,0.93414 -3.480578,1.82306 -4.867077,3.17598 -0.302138,0.29482 0.813409,0.23439 1.201225,0.40113 0.65043,0.27964 1.249672,0.67223 1.907008,0.93525 2.579518,1.03212 2.741985,0.8736 5.600218,1.29096 1.185032,-0.008 2.371564,0.0358 3.555095,-0.0243 1.925034,-0.0979 5.729991,-0.58558 7.62626,-0.78539 3.707847,-0.39074 7.414575,-0.62151 11.136283,-0.82638 4.113025,-0.0265 8.142246,-0.69358 12.175759,-1.4111 0,0 0.184065,-0.13248 0.184065,-0.13248 v 0 c -0.623886,-0.36017 -1.206078,-0.80491 -1.871656,-1.08055 -2.108017,-0.87294 -3.210261,-0.78918 -5.512913,-1.01095 -3.218255,-0.0122 -3.769607,-0.0721 -7.043248,0.15912 -3.781428,0.26707 -7.529346,0.91996 -11.310837,1.16356 -1.153168,0.0743 -2.310437,0.0558 -3.465656,0.0838 -3.304513,-0.41333 -4.304225,-0.54647 -7.158974,-2.21112 -0.475906,-0.27752 -0.90379,-1.01457 -1.425225,-0.8368 -5.705221,1.94504 -5.741869,2.26322 -8.378333,5.0546 -0.498666,0.66308 -0.988505,1.33287 -1.495997,1.98922 -0.560284,0.72462 -2.529964,1.75101 -1.707073,2.15331 1.099318,0.53742 2.213129,-1.17059 3.428625,-1.3117 0.54411,-0.0632 -0.719096,0.95163 -1.256134,1.05953 -0.925943,0.186 -0.894778,-3.99905 -2.64e-4,-2.83335 0.65515,-0.96408 1.748689,-1.74699 1.965452,-2.89229 0.08638,-0.4564 -1.695016,0.10229 -1.373889,-0.23336 0.904481,-0.94536 2.219883,-1.4092 3.427376,-1.91296 2.483328,-1.03606 5.173389,-1.32737 7.729251,-0.48231 0,0 3.859231,-2.49053 3.859231,-2.49053 z" />
    <path
       style="fill:#000000;fill-opacity:1;fill-rule:nonzero;stroke:none;stroke-width:0.264583"
       id="path152"
       d="m -8.1667227,322.12174 c -2.7135303,2.40342 -5.1314883,5.15405 -7.2532123,8.09178 -0.46601,0.64524 -2.759131,3.68403 -2.639874,5.11849 0.03432,0.41283 0.595071,0.57648 0.892607,0.86474 0.800686,-0.29951 1.661082,-0.4722 2.402058,-0.89855 2.613299,-1.5036 5.1718483,-3.11293 7.6224619,-4.86923 1.3619726,-0.97613 2.5734378,-2.15051 3.7859602,-3.30703 2.77754836,-2.64925 4.8379148,-4.92371 6.9741449,-8.11871 0.854778,-1.27842 1.5256557,-2.67066 2.2884836,-4.00598 0.3094395,-0.86215 1.8438971,-4.00034 1.1915735,-5.40478 -0.1993186,-0.4291 -0.8672131,-0.82724 -1.2844603,-0.60415 -2.8577285,1.52808 -5.65130208,3.30028 -7.9773867,5.55657 -1.3116257,1.27228 -2.2133291,6.76415 -2.5158479,8.162 -0.057729,1.44761 -0.2535346,2.89631 -0.173188,4.34284 0.1434179,2.58207 1.0610558,7.18371 4.2255705,7.86977 0.24242977,0.0525 0.49473738,-0.0371 0.74210607,-0.0556 -0.20323956,-0.12578 -0.51267626,-0.59576 -0.60971868,-0.37732 -0.17560236,0.39523 0.0921377,0.86408 0.20838433,1.28066 0.65364301,2.34241 2.02370258,4.19322 4.27076368,5.28016 1.0937497,0.52906 2.3124634,0.74652 3.4686949,1.1198 4.437872,0.52922 10.502652,0.9077 14.481327,-1.64013 8.393025,-5.37464 7.189367,-2.6081 8.424828,-8.00092 -0.03318,-1.16483 -0.185063,-3.73351 0.0853,-4.91456 0.162922,-0.7117 0.555762,-1.35056 0.853548,-2.01718 0.165537,-0.37058 0.255508,-0.79989 0.535929,-1.09331 0.533684,-0.55838 1.23116,-0.93311 1.846742,-1.39967 0,0 -0.211511,0.0818 -0.211511,0.0818 v 0 c -2.147803,1.18594 -6.926334,3.63416 -8.69976,5.38671 -1.946583,1.92365 -1.329032,4.9054 -1.36127,7.28837 -1.119677,4.17055 -0.891936,1.1467 4.197991,0.13819 1.047697,-0.20759 -1.817012,1.15308 -2.818711,1.52371 -3.792828,1.4033 -7.965597,1.46828 -11.916673,0.95776 -2.456587,-0.75239 -3.6144667,-0.71006 -5.3745481,-2.56423 -0.7903395,-0.83259 -1.3461095,-2.25608 -1.496047,-3.39479 -0.04428,-0.33631 0.051984,-0.67641 0.077976,-1.0146 -0.073889,-0.39148 -0.147778,-0.78295 -0.2216668,-1.17443 -0.161389,0.15473 -0.267094,0.41066 -0.4841671,0.46421 -1.751343,0.43201 -3.1449139,-2.26629 -3.5155123,-3.41601 -0.3531382,-1.09556 -0.5551016,-2.24919 -0.6094688,-3.39897 -0.066855,-1.41385 0.1655362,-2.82604 0.2483043,-4.23905 0.3825526,-1.47111 0.6225631,-2.98685 1.147658,-4.4133 0.4622781,-1.25579 2.8764853,-2.7968 1.7982093,-3.58928 -1.3057034,-0.95967 -3.0686861,1.04402 -4.61878516,1.51624 -0.32072188,0.0977 0.71439385,-0.65108 0.92652534,-0.39145 0.37147382,0.45466 0.26740372,1.17036 0.18480137,1.75162 -0.14609532,1.0281 -0.57282248,1.99626 -0.8592337,2.9944 -1.99586055,3.78767 -2.06544265,4.37248 -4.97175525,7.83619 -1.1119594,1.32522 -2.3356205,2.5554 -3.5776646,3.75957 -1.1397655,1.10498 -2.5849615,1.91016 -3.5614505,3.16177 -0.283479,0.36335 1.624454,-0.68699 1.344858,-0.32065 -0.49971,0.65477 -1.398202,0.87104 -2.097303,1.30657 -1.235858,-0.21013 -1.25008,0.0859 -0.75687,-1.81745 1.051501,-4.05776 4.0830936,-7.41156 7.13346,-10.10865 0,0 -1.7541853,0.69602 -1.7541853,0.69602 z" />
    <path
       style="fill:#000000;fill-opacity:1;fill-rule:nonzero;stroke:none;stroke-width:0.264583"
       id="path154"
       d="m 99.808325,316.83859 c -6.776797,9.27497 -13.948939,18.3007 -21.548193,26.91802 -3.51141,3.98182 -7.031278,7.96351 -10.761429,11.7412 -3.832829,3.88168 -7.941501,7.48094 -11.912251,11.22141 -4.885611,3.70771 -14.582542,14.00376 -22.832491,11.72554 -1.648471,-0.45522 -3.119527,-1.85357 -3.83676,-3.40609 -2.540146,-5.49831 0.530024,-10.78442 2.132746,-15.85206 2.353746,-3.54674 4.358094,-7.35198 7.061242,-10.64022 6.566072,-7.98727 14.768528,-14.73541 23.377628,-20.37599 6.763813,-4.43156 19.490967,-9.87964 26.448913,-12.34643 4.986941,-1.76803 10.163062,-2.9486 15.24459,-4.42288 8.34474,-1.35263 15.1923,-3.4221 23.57598,-1.66688 2.19573,0.45971 4.47234,1.32413 6.07708,2.89171 1.18501,1.15758 1.86964,3.03453 1.67353,4.67942 -0.59713,5.0083 -6.55013,9.95852 -9.41389,13.0025 -8.102,5.94169 -9.9725,7.8195 -19.01236,12.39949 -0.90602,0.45902 -1.98616,0.4477 -2.94403,0.78544 -4.147627,1.46238 -7.448711,3.33161 -11.751868,3.91459 -0.433014,0.0587 -0.851178,-0.19815 -1.276765,-0.29723 0.579424,-0.19122 2.181841,-0.99262 1.738272,-0.57362 -1.021889,0.96522 -4.761817,1.57522 -3.546506,2.28161 1.409729,0.81936 3.030161,-1.22116 4.597511,-1.67074 3.625532,-1.03997 6.457294,-1.40851 10.227156,-1.43187 1.70891,-0.0106 3.41305,0.1819 5.11958,0.27286 6.76197,0.72112 13.43803,2.02192 19.96335,3.92766 1.59445,0.46567 3.15117,1.06447 4.76425,1.46085 1.74663,0.42918 3.53331,0.67476 5.29997,1.01216 7.61556,0.008 14.64427,-2.86465 21.69796,-5.34591 0,0 0.17909,-0.13914 0.17909,-0.13914 v 0 c -2.08138,0.65167 -4.10445,1.53244 -6.24413,1.95498 -3.99853,0.78962 -6.07313,0.16415 -9.97784,-0.39828 -1.64426,-0.39632 -3.30239,-0.73898 -4.93278,-1.18896 -1.6013,-0.44196 -3.16696,-1.00444 -4.757,-1.48537 -6.43721,-1.94693 -12.93885,-3.69353 -19.65721,-4.34335 -1.72471,-0.11501 -3.44568,-0.32927 -5.17415,-0.34506 -3.93213,-0.0359 -6.55183,0.2722 -10.353649,1.25724 -1.555081,0.40294 -3.140893,0.78574 -4.580146,1.49932 -10.386825,5.14966 -8.712912,2.43387 -11.083428,7.93173 0.606179,0.11395 1.206685,0.41987 1.81854,0.34189 3.292104,-0.41939 9.789292,-2.91914 12.161292,-4.03968 5.588091,-2.63983 19.174781,-9.66626 25.325581,-13.77172 3.12097,-2.08317 5.9951,-4.51432 8.99265,-6.77148 3.11053,-3.44424 8.86699,-8.12943 8.9851,-13.69494 0.0383,-1.80393 -0.9516,-3.71946 -2.32704,-4.88728 -1.83794,-1.56049 -4.30924,-2.34881 -6.68432,-2.76376 -8.66081,-1.51318 -15.82937,0.60196 -24.39161,2.05137 -5.1334,1.49082 -10.359236,2.69396 -15.400197,4.47244 -21.3615,7.53649 -44.215062,20.3445 -58.85178,38.0507 -2.806759,3.39538 -4.921647,7.30774 -7.38247,10.96161 -1.061365,3.22339 -2.715237,6.30907 -3.184096,9.67015 -1.172792,8.4073 4.292972,13.467 12.551369,10.14389 4.953887,-1.99342 9.515586,-4.90302 13.942457,-7.88924 3.669652,-2.47542 6.837857,-5.62314 10.256784,-8.43471 3.436583,-3.52507 6.978171,-6.95071 10.309752,-10.57515 3.393665,-3.69203 6.611633,-7.5423 9.857441,-11.36494 7.547329,-8.88863 14.818857,-18.00998 22.05201,-27.15424 0,0 -1.613435,0.70744 -1.613435,0.70744 z" />
    <path
       style="fill:#000000;fill-opacity:1;fill-rule:nonzero;stroke:none;stroke-width:0.264583"
       id="path156"
       d="m 208.17924,321.49589 c 0.20524,-0.66331 0.59495,-1.2959 0.6157,-1.98993 0.0461,-1.54284 -0.73512,-3.02546 -2.222,-3.64868 -1.86898,-0.78341 -4.71242,-0.39542 -6.4982,0.21992 -1.20793,0.41624 -2.27913,1.15541 -3.41869,1.7331 -2.98525,2.19384 -6.3373,3.96073 -8.95573,6.58148 -1.19305,1.19412 -1.84595,2.91489 -2.1844,4.56859 -1.48408,7.2513 2.70547,14.48758 7.15284,19.75649 1.85109,2.193 4.10083,4.01579 6.15125,6.02366 2.23108,1.51138 4.34689,3.20879 6.69326,4.53411 1.04628,0.591 8.53051,4.2902 10.81359,3.53053 0.79349,-0.26403 13.75082,-3.44853 10.95464,-9.21584 -0.67912,-1.40076 -2.16146,-2.24081 -3.24218,-3.36121 -6.52155,-3.81146 -13.84308,-4.86461 -21.19658,-5.80951 -2.15087,-0.27641 -4.33032,-0.34219 -6.4657,-0.72007 -0.92513,-0.16372 -2.7866,0.0355 -2.67198,-0.89701 0.11611,-0.94459 1.88621,-0.2553 2.82932,-0.38296 0.0173,0.4839 -0.41778,1.56869 0.0521,1.45169 4.54421,-1.13154 8.78442,-3.25226 13.21927,-4.75636 4.75342,-1.61216 9.5608,-3.06062 14.34119,-4.59095 0,0 0.17947,-0.13866 0.17947,-0.13866 v 0 c -4.44684,1.27354 -8.84768,2.72026 -13.34051,3.82061 -19.46977,4.76832 1.85805,-2.98726 -24.10052,7.96406 -0.72999,0.93419 -2.50578,1.65984 -2.18995,2.80255 0.29059,1.05142 2.09865,0.626 3.17907,0.77626 2.18444,0.30382 4.39938,0.33313 6.5907,0.58245 7.25927,0.8259 14.6322,1.75202 21.29006,4.96763 0.91585,0.90001 2.18108,1.54766 2.74757,2.69999 0.34212,0.69594 -1.05864,2.36533 -0.28521,2.30892 1.98084,-0.14444 5.54286,-0.70237 5.32341,-2.67632 -0.20641,-1.85668 -3.75727,0.47012 -5.60167,0.17336 -6.20738,-0.99872 -8.28586,-3.13507 -13.5428,-6.4865 -2.00131,-1.98165 -4.25303,-3.73891 -6.00393,-5.94495 -3.39958,-4.28323 -5.3371,-8.44605 -6.10937,-13.82686 -0.26999,-1.88113 -0.29854,-3.83561 0.0654,-5.70084 0.29017,-1.48699 2.11734,-2.65623 1.85657,-4.1487 -0.14681,-0.84023 -1.70279,0.10404 -2.55418,0.15605 1.34949,-0.81451 2.60861,-1.8022 4.04848,-2.44358 1.49173,-0.66445 4.49111,-1.47693 6.26701,-0.72263 1.95223,0.82918 1.60493,3.37989 1.5966,5.00102 0,0 4.61609,-2.19091 4.61609,-2.19091 z" />
    <path
       style="fill:#000000;fill-opacity:1;fill-rule:nonzero;stroke:none;stroke-width:0.264583"
       id="path158"
       d="m 258.1913,165.5194 c -1.95247,2.97109 -3.00838,4.36224 -4.53061,7.95677 -4.4734,10.56331 -6.74423,21.98005 -7.88194,33.35269 -0.42986,4.297 -0.44478,8.62544 -0.66717,12.93817 0.28667,2.77159 -0.22461,13.25715 4.56969,15.48815 6.1711,2.87168 18.93577,-9.38783 19.69541,-10.08903 5.7635,-5.31996 20.37903,-24.90579 24.41493,-30.14159 11.94872,-15.86741 23.44346,-32.0662 34.87491,-48.30726 2.03068,-2.88506 3.92457,-5.87094 6.08571,-8.65961 0.49086,-0.6334 2.40308,-2.11878 1.83176,-1.55687 -2.87771,2.83037 -5.83641,5.57722 -8.75463,8.36583 -7.18781,14.57081 -15.03479,28.88514 -24.26306,42.28178 -6.39644,9.28567 -12.18343,16.9921 -20.73524,24.27717 -2.61866,2.23079 -5.70907,3.83953 -8.56358,5.7593 0.66275,-1.56376 -1.65037,-2.68295 -1.32988,-4.07556 1.05341,-4.57733 8.0695,-12.01761 10.42474,-14.31348 9.5295,-9.28921 19.1724,-16.06141 29.79651,-24.16176 16.98336,-12.48217 34.77162,-23.80005 52.08193,-35.80962 8.33247,-5.78091 15.58036,-10.76687 23.07764,-17.47045 2.32593,-2.0797 4.39349,-4.43143 6.59024,-6.64714 -2.33407,1.98883 5.99493,-6.07397 3.60969,-7.47842 -0.9937,-0.58511 -2.42007,-0.0554 -3.42048,0.51819 -3.91398,2.24401 -7.83027,4.64822 -11.06903,7.78912 -5.51566,5.34902 -13.70132,20.70553 -16.89079,26.17714 -10.70655,20.34214 -18.72969,41.90308 -27.45862,63.11911 -3.02646,7.35599 -8.19742,21.01163 -13.24911,28.4232 -0.81693,1.19858 -2.24679,1.83515 -3.37021,2.75272 0.89564,-1.72146 2.27841,-3.26735 2.68687,-5.16439 0.4273,-1.98444 -0.45037,-4.06258 -0.2649,-6.08401 0.62505,-6.81182 3.39357,-13.92383 7.3937,-19.46253 1.13011,-1.56479 2.56283,-2.88701 3.84426,-4.33052 5.12027,-4.63993 10.95002,-8.45825 16.76929,-12.16212 0.64077,-0.40784 2.56027,-1.62477 1.9666,-1.151 -1.3068,1.04288 -2.74405,1.91091 -4.11607,2.86636 2.12736,1.90925 4.52411,2.27212 7.19532,0.93715 7.91771,-3.95698 6.63006,-3.19188 11.20478,-7.80784 0.72644,-1.22156 1.6876,-2.33121 2.17932,-3.66466 1.34155,-3.63787 -0.0345,-7.54876 -4.70582,-6.29681 -4.38883,1.17625 -15.20108,10.16964 -16.25471,10.95547 -2.14899,2.75489 -5.8231,6.51684 -6.54724,10.35174 -0.15944,0.8443 0.0212,1.97494 0.71969,2.47513 1.86658,1.33644 5.9958,-0.61013 7.34274,-1.1135 1.52107,-0.56845 3.008,-1.22436 4.51202,-1.83655 7.06562,-3.01519 12.81602,-1.84706 20.18972,-1.45065 8.08498,0.43464 7.7928,0.30646 16.27317,0.27102 4.64754,-0.18261 11.7647,-0.32739 16.46976,-1.00952 3.53578,-0.5126 6.81305,-1.14128 9.71796,-3.30152 2.49449,-1.85503 5.48643,-3.39972 7.08223,-6.06749 0.53499,-0.89434 -1.354,-1.58455 -2.03099,-2.37683 -1.58848,-0.28038 -3.15328,-0.89477 -4.76541,-0.84113 -4.80563,0.15989 -10.94727,2.31826 -15.249,4.01835 -6.63651,2.62283 -12.90666,6.08258 -19.21052,9.39622 -2.10489,1.09625 -5.10976,2.35647 -5.66428,5.05632 -0.18476,0.89944 1.83595,0.0677 2.75066,0.14778 1.40277,0.12274 2.79855,0.3159 4.19926,0.46035 7.06728,0.72882 4.88791,0.50896 12.6593,0.98155 2.66584,0.087 5.33152,0.17985 7.99757,0.26096 7.26881,0.22113 9.45112,0.12503 16.6974,0.85476 5.80075,0.58417 9.92,1.4971 15.74731,1.87339 2.65962,0.17174 5.32913,0.11037 7.9937,0.16556 6.31645,-0.57277 8.62888,-0.63746 14.67194,-1.6997 6.09528,-1.0714 10.83842,-2.62304 15.61753,-7.07305 1.08233,-1.00778 1.42137,-2.59381 2.13204,-3.89072 0.43942,-1.80797 1.07638,-3.57911 1.31829,-5.42393 0.31612,-2.41092 0.32633,-4.85489 0.34829,-7.28635 0.0787,-8.71536 -0.39116,-17.52495 -5.2457,-25.12148 -1.47156,-2.30274 -3.5982,-4.11404 -5.39732,-6.17106 -3.56007,-2.58556 -7.04389,-5.77997 -11.54329,-6.74803 -4.80777,-1.03442 -9.96609,3.19908 -12.48881,6.38701 -1.90204,2.40357 -0.0566,9.66641 0.27699,11.71622 1.0074,2.23882 1.70857,4.64242 3.02218,6.71644 6.1555,9.71875 16.91015,14.98318 24.57727,23.25136 1.40293,1.51291 2.51164,3.27416 3.76746,4.91124 0.42984,1.30622 1.07214,2.56082 1.2895,3.91867 0.29527,1.84441 -5.35649,13.21635 5.97966,-2.85003 0.54814,-0.77688 -0.71027,-1.76414 -1.08513,-2.63792 -2.27547,-5.30384 -1.66934,-2.17698 -1.50948,-8.50396 0.80309,-1.81941 1.60618,-3.63882 2.40927,-5.45823 0,0 -0.20619,0.0945 -0.20619,0.0945 v 0 c -0.80261,1.82042 -1.6052,3.64085 -2.40781,5.46127 -1.36197,2.92195 -4.26958,8.52928 -4.78846,11.92903 -0.176,1.15335 -0.67834,3.43163 0.48787,3.46596 5.19652,0.153 9.34201,-1.27086 7.43966,-5.07982 -0.6267,-1.25478 -1.49397,-2.37421 -2.24094,-3.56132 -5.14896,-5.73839 -3.71682,-4.49132 -10.13341,-9.98877 -6.41663,-5.49747 -13.89738,-10.4883 -18.39352,-17.86942 -1.25127,-2.05413 -1.87934,-4.42816 -2.81898,-6.64225 -0.26222,-2.1147 -0.83817,-4.21383 -0.78668,-6.34411 0.0413,-1.70955 1.64989,-3.41361 1.06129,-5.01916 -0.32509,-0.88675 -3.72128,0.50629 -2.82588,0.20585 1.36684,-0.45863 2.84456,-0.9081 4.26977,-0.69033 4.33848,0.66293 8.30535,4.02439 11.70294,6.33777 4.47255,4.61898 7.51779,6.96632 10.20583,13.03738 4.55713,10.29251 2.53436,20.38403 -1.54773,30.31515 -0.69525,1.21475 -1.89061,2.25828 -2.08571,3.64424 -0.0743,0.52732 2.02485,-0.44567 1.59178,-0.13575 -4.58562,3.28189 -11.62187,4.66272 -17.11682,4.91887 -2.20223,0.10266 -4.40687,-0.14482 -6.61032,-0.21723 -2.29648,-0.30602 -4.59791,-0.57707 -6.88946,-0.91806 -7.39312,-1.1001 -7.71938,-1.45864 -15.30258,-2.22786 -7.44455,-0.75515 -9.21287,-0.62193 -16.65999,-0.90662 -2.61929,-0.10012 -5.23745,-0.22803 -7.85617,-0.34205 -6.62307,-0.4929 -6.23599,-0.35948 -12.33209,-1.16988 -1.3544,-0.18004 -2.69814,-0.43602 -4.05366,-0.60744 -0.8763,-0.11082 -1.81443,-0.55553 -2.63903,-0.23893 -2.38395,0.91529 -4.44873,2.50911 -6.64909,3.80502 -0.71511,0.42118 1.46154,-0.78677 2.19232,-1.18016 6.2185,-3.2698 12.39803,-6.69194 18.9353,-9.30246 4.31829,-1.72442 9.84837,-3.68427 14.62849,-3.96872 1.45659,-0.0867 2.89378,0.37788 4.34065,0.56682 0.5865,0.5084 0.98478,1.47779 1.75953,1.52521 1.59668,0.0977 3.75785,-2.45069 4.6636,-1.13212 0.84812,1.23469 -2.45843,1.76831 -3.85559,2.30841 -7.17018,2.77175 -15.16258,2.12371 -22.65021,2.66467 -8.12948,-0.028 -8.22042,0.115 -15.96821,-0.42866 -7.26204,-0.50958 -13.22218,-1.88054 -20.21903,1.08938 -1.10054,0.44897 -6.8878,2.85776 -8.27329,3.25125 -0.81915,0.23265 -1.75958,0.7304 -2.52851,0.3645 -0.61151,-0.29099 -0.83228,-1.23878 -0.70763,-1.90443 0.73731,-3.93799 4.13753,-7.13552 6.43892,-9.99529 -0.15732,-0.46906 -0.82288,-1.0584 -0.47199,-1.40719 1.29802,-1.29032 5.39078,-3.88419 7.87996,-2.99413 2.08425,0.74527 1.66772,3.63826 1.20166,5.01331 -0.41529,1.22527 -1.27815,2.24975 -1.9172,3.37464 -0.88948,0.91864 -2.21843,1.55903 -2.6684,2.75593 -0.26178,0.69636 2.74092,-0.89357 2.00265,-0.98512 -0.93138,-0.11549 -1.74302,0.73747 -2.66686,0.90276 -1.89479,0.33901 -3.08343,-0.45503 -4.26514,-1.77823 -2.06396,0.91873 -4.16372,1.7609 -6.19186,2.75618 -1.13408,0.55654 -2.44292,1.88637 -3.32478,2.64891 -3.37809,2.92104 -6.88649,5.68682 -10.22247,8.65753 -3.53422,3.93659 -5.01435,5.10785 -7.5253,10.01535 -2.21126,4.32178 -3.77815,9.62292 -4.78983,14.33487 -0.48853,2.27531 -2.07127,4.78835 -1.08575,6.89654 0.75211,1.60889 3.38146,1.08745 5.0722,1.63117 1.09722,-0.98436 2.51274,-1.70165 3.2917,-2.95309 3.77775,-6.06906 10.05256,-23.09589 11.9538,-27.88059 8.52368,-21.45078 16.82009,-43.07192 28.0471,-63.30784 27.00118,-43.722572 -4.70881,6.16118 18.39645,-26.61116 0.86067,-1.22074 -3.28001,-3.51655 2.4569,-2.78505 2.40231,0.30632 -5.67788,11.75126 -2.98381,6.62426 -2.06042,2.13767 -3.98992,4.40976 -6.18125,6.41301 -7.14124,6.52825 -14.23419,11.48514 -22.21331,17.07644 -17.17783,12.03727 -34.87539,23.32404 -51.80218,35.72342 -5.70979,4.31016 -11.53854,8.46712 -17.12937,12.93049 -7.22889,5.77106 -16.28658,13.02379 -21.9176,20.85597 -1.41508,1.96822 -2.85031,4.14102 -3.17321,6.54353 -0.15777,1.17408 0.71332,3.15353 1.88926,3.01016 3.95862,-0.48262 7.36616,-3.05838 11.04927,-4.58757 2.66176,-1.88155 5.55095,-3.47686 7.98528,-5.64464 8.16107,-7.2675 13.74849,-14.99546 19.93762,-24.04966 9.40771,-13.76269 17.53466,-28.34921 25.58349,-42.92683 -0.93834,-1.10529 -1.63396,-2.47487 -2.81501,-3.31588 -0.29871,-0.21271 -0.2156,0.70889 -0.40518,1.02279 -1.68367,2.78779 -3.41741,5.5461 -5.20586,8.26785 -10.785,16.41311 -22.3329,32.31113 -34.16848,47.97826 -13.54698,17.12612 -11.76596,15.65002 -25.72448,30.58028 -2.79516,2.98974 -6.05721,7.36336 -11.20296,5.85859 -5.86393,-1.71478 -5.66773,-10.24975 -6.43954,-14.14994 0.0666,-4.22538 -0.15637,-8.46527 0.19969,-12.67615 0.78191,-9.24714 2.41917,-16.27725 5.11769,-25.03482 1.74701,-5.66958 3.93098,-11.16846 7.21861,-16.12318 0,0 -1.75566,0.74834 -1.75566,0.74834 z" />
    <path
       style="fill:#000000;fill-opacity:1;fill-rule:nonzero;stroke:none;stroke-width:0.264583"
       id="path160"
       d="m 599.80083,115.96121 c -16.55246,18.0814 -30.93095,37.99613 -47.06583,56.44311 -4.68725,5.35893 -9.5804,10.5342 -14.3706,15.8013 -10.61469,10.24887 -15.71131,15.83882 -27.15459,24.5406 -3.23371,2.45901 -6.57931,4.80519 -10.13944,6.76199 -0.38428,0.2112 -1.0501,-0.11634 -1.20555,-0.52634 -0.27429,-0.72348 -0.25908,-1.64734 0.12727,-2.31771 1.15721,-2.00793 2.89277,-3.62151 4.33916,-5.43227 7.85249,-6.80191 9.09278,-8.6513 18.95219,-13.60956 2.48735,-1.25089 5.19753,-2.0182 7.87172,-2.79299 9.52805,-2.76052 14.85342,-4.08802 24.7042,-4.1278 3.57756,-0.0144 7.13177,0.57868 10.69766,0.86803 9.42449,2.26503 8.21399,1.58462 16.65235,4.9865 1.93749,0.78109 3.79031,1.76239 5.7291,2.54023 0.69397,0.27842 4.97776,2.32576 6.49293,1.14595 2.16897,-1.68889 3.76653,-4.00504 5.64978,-6.00756 -0.77695,-1.35988 -1.38817,-2.82894 -2.33085,-4.07966 -4.18473,-5.55216 -9.93963,-9.76251 -15.27913,-14.09582 -4.69276,-3.80845 -3.09412,-2.04377 -5.78792,-5.65287 0.47202,-0.34755 1.38123,-1.62779 1.41608,-1.04265 0.0582,0.97718 -2.27301,2.39036 -1.322,2.62234 2.73429,0.66697 5.59256,-0.64369 8.3956,-0.89688 10.23231,-0.92427 20.50032,-1.57316 30.74599,-2.33431 9.06973,-1.08026 18.17595,-0.0661 27.26132,-0.12252 32.17717,-0.19969 -8.0893,-0.60891 19.1203,-0.24152 0,0 0.1837,-0.13299 0.1837,-0.13299 v 0 c -2.82157,-0.0566 -5.66143,0.15595 -8.46469,-0.16973 -2.604,-0.30253 -5.10992,-1.176 -7.67738,-1.70563 -2.65587,-0.54787 -5.29474,-1.2353 -7.99084,-1.5265 -6.31055,-0.68158 -11.22998,-0.10031 -17.54407,0.29032 -8.33107,0.64785 -12.0745,0.96755 -20.49799,1.50342 -3.30211,0.21006 -6.60739,0.36721 -9.90981,0.57202 -2.68049,0.16625 -5.44269,-0.14686 -8.0387,0.54114 -3.85003,1.02036 -7.54999,2.63942 -11.06064,4.52068 -0.58804,0.31512 -0.53298,1.22323 -0.79947,1.83484 0.68683,0.74478 1.29612,1.56941 2.06052,2.23433 1.34927,1.17367 2.84163,2.17198 4.25889,3.26257 5.37009,4.13231 11.29192,8.20303 15.35351,13.74262 0.85765,1.16974 1.34281,2.57143 2.01419,3.85714 1.83201,-0.31295 3.64628,-0.75788 5.49598,-0.93885 0.81667,-0.0799 -1.56128,0.70549 -2.37871,0.63386 -1.4723,-0.12901 -2.87213,-0.71847 -4.26384,-1.2159 -2.01665,-0.7208 -3.94385,-1.67358 -5.94614,-2.43338 -8.97488,-3.4057 -7.02876,-2.58116 -17.01784,-4.92109 -10.01924,-0.77367 -12.76186,-1.55721 -23.05359,0.13831 -12.31988,2.02964 -18.01326,4.91309 -29.64866,11.04272 -3.86693,2.03715 -7.62873,4.30383 -11.17713,6.85569 -3.00387,2.16028 -5.6116,4.82394 -8.4174,7.2359 -1.56382,2.0583 -3.71311,3.78219 -4.69144,6.17488 -0.39449,0.9648 -0.0762,3.17137 0.94835,2.9797 4.00037,-0.7484 7.50834,-3.19291 11.0363,-5.22181 3.29549,-1.89522 6.38365,-4.15034 9.36408,-6.51028 10.75063,-8.51256 15.46982,-13.89574 25.42323,-23.87786 4.72038,-5.24082 9.51862,-10.41253 14.16111,-15.72245 16.22332,-18.55566 31.37601,-38.01574 47.53162,-56.62908 0,0 -2.75288,1.15582 -2.75288,1.15582 z" />
    <path
       style="fill:#000000;fill-opacity:1;fill-rule:nonzero;stroke:none;stroke-width:0.264583"
       id="path162"
       d="m 256.66505,350.50034 c -6.84065,1.91415 -11.30393,7.25135 -14.52932,13.31071 -1.06943,2.00909 -1.90647,4.1335 -2.8597,6.20024 -1.85682,6.15715 -2.82014,8.24326 -3.43294,14.67806 -0.20655,2.16881 -0.35198,4.373 -0.086,6.53534 0.25516,2.07441 1.27364,6.22162 4.3713,6.36497 1.67523,0.0775 3.19275,-1.02759 4.78913,-1.54138 2.99636,-2.14048 6.17721,-4.04379 8.98907,-6.42147 4.18704,-3.54052 12.97422,-13.47948 16.20865,-17.24525 7.06437,-8.22491 13.1903,-15.9281 19.71707,-24.62657 3.35698,-4.47397 6.57902,-9.04758 9.86856,-13.5714 7.37682,-10.65049 14.76314,-21.32402 21.40616,-32.45631 0.82741,-1.3866 1.83031,-2.71026 2.33548,-4.24391 0.0977,-0.29665 -0.50332,-0.74107 -0.75462,-0.55555 -2.78963,2.05965 -5.20411,4.58412 -7.80618,6.87618 -13.60088,18.65733 -27.37493,37.32628 -43.24549,54.15161 -2.95767,3.1356 -6.12145,6.0702 -9.18217,9.10532 -2.49537,2.0633 -4.99075,4.12657 -7.48612,6.18984 0.17365,-0.18846 0.75854,-0.46937 0.52094,-0.56539 -0.68094,-0.27519 -1.7821,0.49033 -2.20042,-0.11334 -0.4673,-0.67435 0.18229,-1.64341 0.4443,-2.42091 1.7581,-5.21682 2.5037,-5.3566 6.05914,-10.35199 0,0 -0.20862,0.0889 -0.20862,0.0889 v 0 c -2.008,2.22771 -4.07393,4.40455 -6.024,6.68314 -0.42525,0.49691 -7.0257,7.08091 -5.87473,10.02003 0.33147,0.84648 1.88706,0.55163 2.72059,0.18886 8.74898,-3.80746 10.38209,-6.00493 17.10089,-11.8147 2.88936,-2.97458 5.87095,-5.86224 8.6681,-8.92368 15.52543,-16.99242 28.82117,-35.80233 42.84789,-54.00204 -0.17364,-0.68628 -0.57155,-1.35271 -0.52088,-2.05878 0.022,-0.30514 0.79769,-0.87431 0.71027,-0.58116 -1.00698,3.37712 -5.19583,10.04774 -6.36923,11.96407 -6.19901,10.12391 -8.90231,13.80061 -15.84079,23.98781 -15.07657,20.72592 -30.3915,41.65632 -49.62768,58.78025 -1.61081,0.63008 -3.10416,1.82079 -4.83242,1.89027 -3.17282,0.12761 -4.38471,-3.62786 -4.7206,-5.84727 -0.32173,-2.12582 -0.19598,-4.30868 -0.004,-6.45012 0.57037,-6.3592 1.61622,-8.57885 3.50217,-14.64476 2.20396,-4.70411 2.99081,-7.02286 5.98404,-11.13579 0.88573,-1.21705 2.02511,-2.22906 2.98317,-3.39005 0.24117,-0.29226 0.30249,-0.73583 0.6073,-0.96094 1.11243,-0.8215 2.43271,-1.1357 3.71502,-1.53188 0,0 2.05658,-1.56099 2.05658,-1.56099 z" />
    <path
       style="fill:#000000;fill-opacity:1;fill-rule:nonzero;stroke:none;stroke-width:0.264583"
       id="path164"
       d="m 351.18087,286.47001 c -11.20934,8.84716 -21.615,18.77136 -30.84536,29.67783 -2.95294,3.48917 -5.67539,7.16706 -8.5131,10.75061 -4.90937,7.33639 -8.41026,11.69423 -11.77399,19.64348 -1.47375,3.48277 -1.70532,5.99686 -2.23371,9.47629 0,0 0.20431,-0.0984 0.20431,-0.0984 v 0 c 1.79683,-6.02888 0.65479,-3.2284 5.0955,-10.74711 5.97913,-10.12344 5.90561,-9.70135 12.74604,-20.00547 2.69594,-3.51377 5.29114,-7.10715 8.08783,-10.54126 8.98446,-11.03204 19.16983,-21.02969 30.61415,-29.49707 0,0 -3.38167,1.34112 -3.38167,1.34112 z" />
    <path
       style="fill:#000000;fill-opacity:1;fill-rule:nonzero;stroke:none;stroke-width:0.264583"
       id="path166"
       d="m 334.65034,329.65644 c -0.71403,1.28259 -5.38274,9.09415 -2.70304,9.85903 0.53872,0.15378 1.1099,-0.15335 1.66487,-0.23005 3.46993,-2.03269 8.24658,-4.24117 9.31619,-8.69008 0.20444,-0.85027 0.20923,-1.81166 -0.12298,-2.62062 -0.31903,-0.77687 -0.93895,-1.52059 -1.71222,-1.8483 -1.05082,-0.4454 -2.27251,-0.21476 -3.40876,-0.32213 -1.53784,0.52379 -3.19241,0.78414 -4.61357,1.57136 -8.91865,4.94017 -15.23952,9.25129 -19.86402,18.3329 -0.87349,1.71537 -1.80475,3.51478 -1.95513,5.43385 -0.0945,1.20571 0.8419,2.26756 1.26283,3.40135 3.86873,1.76977 1.91381,1.21325 5.82916,1.78986 0,0 0.18608,-0.12962 0.18608,-0.12962 v 0 c -3.27771,-0.8672 -2.27705,0.18142 -2.89136,-3.24771 0.44915,-1.48908 0.8011,-3.01104 1.34744,-4.46728 1.6728,-4.45865 3.21053,-7.54269 6.2793,-11.31893 1.52353,-1.87475 3.55294,-3.2998 5.06294,-5.18546 0.14867,-0.18566 -0.72102,-0.37476 -0.51509,-0.49379 1.44039,-0.83259 3.08216,-1.25391 4.62322,-1.88087 1.14067,-0.0864 2.30444,-0.50348 3.42202,-0.25927 2.89972,0.63368 1.90457,4.45522 1.01065,6.09053 -0.41616,0.76128 -1.36702,1.21615 -1.60213,2.05128 -0.10525,0.37386 0.74496,-0.21986 1.11747,-0.3298 -0.53388,0.2036 -1.03021,0.61148 -1.60158,0.61079 -1.27643,-0.003 -0.76628,-2.05507 -0.68059,-2.40879 0.60315,-2.48947 2.0174,-4.75668 3.31838,-6.92219 0,0 -2.77008,1.21394 -2.77008,1.21394 z" />
    <path
       style="fill:#000000;fill-opacity:1;fill-rule:nonzero;stroke:none;stroke-width:0.264583"
       id="path168"
       d="m 347.29195,334.26966 c 0.56517,5.01525 3.53316,8.07916 8.53757,9.28899 1.90188,0.45977 8.84812,0.70694 10.96198,0.8079 0,0 0.1842,-0.13229 0.1842,-0.13229 v 0 c -1.68931,-0.10647 -3.43013,0.10816 -5.06791,-0.3194 -5.18466,-1.35358 -8.37509,-7.43583 -10.66389,-11.78573 0,0 -3.95195,2.14053 -3.95195,2.14053 z" />
    <path
       style="fill:#000000;fill-opacity:1;fill-rule:nonzero;stroke:none;stroke-width:0.264583"
       id="path170"
       d="m 389.69362,321.25928 c -1.20324,0.46061 -2.43001,0.86391 -3.60974,1.38183 -7.43092,3.26232 -14.56211,7.25041 -21.72107,11.05247 -12.11818,6.43588 -5.52437,2.98672 -17.55704,9.20189 -2.3052,1.03286 -4.61041,2.06574 -6.91562,3.09862 0,0 -0.17828,0.14015 -0.17828,0.14015 v 0 c 1.73284,-0.57627 3.4657,-1.1525 5.19854,-1.72877 2.18342,-0.92003 4.40306,-1.75842 6.55021,-2.7601 11.47542,-5.3535 22.30598,-12.03783 33.9549,-17.04308 0,0 4.2781,-3.34301 4.2781,-3.34301 z" />
    <path
       style="fill:#000000;fill-opacity:1;fill-rule:nonzero;stroke:none;stroke-width:0.264583"
       id="path172"
       d="m 358.02376,340.78566 c 5.42817,1.00277 11.19466,0.97758 16.64944,0.12914 2.15405,-0.33504 4.27045,-0.87852 6.40567,-1.31778 2.16146,-0.551 4.32289,-1.10199 6.48433,-1.65299 0,0 0.18068,-0.13705 0.18068,-0.13705 v 0 c -1.79446,0.27815 -3.58894,0.55631 -5.3834,0.83447 -6.86011,0.087 -13.80635,0.76829 -20.60395,-0.44778 0,0 -3.73277,2.59199 -3.73277,2.59199 z" />
    <path
       style="fill:#000000;fill-opacity:1;fill-rule:nonzero;stroke:none;stroke-width:0.264583"
       id="path174"
       d="m 422.98257,325.58796 c -4.81026,0.35825 -8.71969,2.32305 -12.63243,5.2061 -0.338,0.24906 -0.82274,0.83347 -0.53575,1.13988 0.46331,0.49467 1.32715,0.27572 1.99072,0.4136 1.35623,-0.50919 2.74963,-0.92864 4.06869,-1.52763 1.81221,-0.8229 3.59129,-1.72682 5.30968,-2.73105 7.99219,-4.67058 16.28688,-9.45282 22.04977,-16.93008 1.16538,-1.51207 1.97342,-3.26856 2.96013,-4.90286 0.25966,-1.36546 0.99235,-2.72296 0.77901,-4.09644 -0.90604,-5.83359 -11.47426,-4.18317 -14.86691,-2.53664 -3.33785,1.61994 -6.41691,3.72631 -9.62538,5.58948 -0.53835,1.01471 -1.38732,1.91826 -1.61507,3.04417 -0.80656,3.98727 2.69375,8.99874 4.6164,12.09696 4.10506,6.34987 2.11111,3.18661 5.98657,9.48687 0.79287,1.21317 2.58677,5.00155 4.78289,5.33199 0.90266,0.13581 1.85465,-0.32811 2.60284,-0.85103 3.29266,-2.30135 6.62168,-4.63987 9.40195,-7.53952 1.10103,-1.14831 3.22738,-7.6223 3.73221,-9.04459 1.1761,-2.89542 0.66852,-6.50997 2.63363,-9.10839 1.54573,-2.04383 3.49115,-2.75884 5.70453,-4.01513 0,0 0.17645,-0.14245 0.17645,-0.14245 v 0 c -6.17554,3.38259 -12.59507,6.31833 -15.64532,13.12127 -0.58735,1.30995 -0.86476,2.73791 -1.29714,4.10686 -0.4344,1.44187 -0.78844,2.91042 -1.30316,4.32559 -0.5126,1.40933 -2.7959,3.037 -1.77392,4.13449 1.10072,1.182 3.20199,-1.37845 4.75467,-0.93361 0.93231,0.26712 -1.47103,1.4569 -2.43031,1.59954 -2.91033,0.43278 -4.38383,-2.47436 -5.87473,-4.16597 -3.59568,-5.64827 -2.46163,-3.60394 -5.62279,-9.65563 -1.53773,-2.94383 -4.82063,-8.06984 -3.83701,-11.69077 0.27609,-1.01637 1.11633,-1.78625 1.67447,-2.67936 -0.89398,0.44747 -3.68152,1.35965 -2.68195,1.34239 1.52902,-0.0265 2.87536,-1.08712 4.3779,-1.37168 2.31465,-0.43838 8.93249,-1.01311 9.5595,2.75061 0.21026,1.26225 -0.46469,2.51677 -0.69702,3.77513 -0.93821,1.56186 -1.70921,3.23723 -2.81461,4.68556 -3.91374,5.12784 -5.31379,5.35014 -10.27401,9.59403 -0.35422,0.30308 -0.52411,0.80693 -0.91961,1.05368 -3.88776,2.42556 -5.42655,2.90949 -9.30915,4.51186 -0.52356,0.20965 -1.04712,0.41928 -1.57068,0.62894 0.0381,-0.20561 0.31888,-0.65982 0.11422,-0.61683 -0.84111,0.17677 -3.14401,1.38639 -2.33934,1.08443 0.87742,-0.32928 1.6745,-0.85418 2.55808,-1.1665 1.7731,-0.62672 2.66475,-0.63942 4.426,-0.83487 0,0 3.40598,-2.4824 3.40598,-2.4824 z" />
    <path
       style="fill:#000000;fill-opacity:1;fill-rule:nonzero;stroke:none;stroke-width:0.264583"
       id="path176"
       d="m 556.9767,264.88456 c -18.58172,13.54328 -36.01609,28.60413 -53.73323,43.24255 -12.13736,9.77865 -19.85489,16.14601 -32.19365,25.51186 -4.65233,3.53139 -9.29656,7.08059 -14.1047,10.3967 -0.29945,0.20653 -8.79861,8.56961 -13.05057,7.14504 -0.82802,-0.27744 -1.56771,-0.76983 -2.35159,-1.15474 1.63142,-2.26828 3.04236,-4.71263 4.89421,-6.80477 9.17723,-10.36809 17.96589,-17.77267 29.08924,-26.39213 13.04274,-10.10682 27.6466,-20.03558 41.74427,-28.60255 5.25843,-3.19548 10.74634,-5.99704 16.1195,-8.99557 10.60238,-4.68037 19.83808,-9.63019 31.21773,-11.86672 2.68433,-0.52758 5.56718,-0.93948 8.20431,-0.21182 4.67191,1.28907 1.18155,6.92708 0.15806,8.49916 -1.65409,2.54066 -3.88763,4.65301 -5.83144,6.97954 -8.46934,7.10819 -9.32072,8.39836 -19.03468,14.1469 -1.31339,0.77724 -2.79479,1.22825 -4.21108,1.79676 -6.34688,2.54776 -8.79467,3.80336 -15.13189,4.95086 -1.26397,0.22887 -2.56186,0.19211 -3.84279,0.28818 -2.37172,-0.78187 -3.62235,-1.44306 -5.58778,3.77704 -0.44495,1.18179 2.42374,-0.71469 3.65339,-1.00193 5.44086,-1.27092 10.5746,-1.90314 16.12482,-2.37916 4.11853,0.20408 4.03971,-0.0301 7.73869,0.92848 2.91661,0.75583 2.81588,1.20327 5.95516,1.48413 3.51796,0.31472 5.59581,-0.15431 9.21425,-0.58026 6.34391,-0.99108 12.65375,-2.18189 18.9946,-3.19188 3.86707,-0.61598 10.44815,-1.51204 14.206,-2.33376 2.84033,-0.62108 5.63245,-1.44518 8.44868,-2.16778 2.75555,-0.84267 5.51114,-1.68535 8.26669,-2.52802 0,0 0.18013,-0.13782 0.18013,-0.13782 v 0 c -2.17395,0.40555 -4.3479,0.81113 -6.52185,1.21669 -5.7318,0.28776 -6.5225,0.2464 -12.37149,0.88572 -8.47799,0.9267 -16.85237,2.53904 -25.27496,3.84318 -3.2726,0.38399 -5.64364,0.85563 -8.87103,0.60851 -3.17082,-0.24281 -2.95581,-0.67786 -5.95307,-1.45923 -3.87831,-1.01108 -3.7515,-0.76113 -8.06352,-0.96724 -1.79969,0.15187 -3.60487,0.24895 -5.39909,0.45562 -3.29099,0.37904 -7.36478,1.08632 -10.64487,1.7187 -1.16816,0.22522 -2.43978,0.18145 -3.49229,0.73602 -2.85509,1.50442 -5.58628,3.2893 -8.06625,5.35437 -0.31339,0.26099 0.771,0.26631 1.1565,0.39945 1.38096,-0.11941 2.78061,-0.1024 4.1429,-0.35822 5.2198,-0.98023 10.98899,-2.88587 15.69733,-5.17695 12.7323,-6.19553 24.87673,-13.38156 35.24626,-23.09648 2.02414,-2.45359 4.44121,-4.63013 6.07247,-7.36074 1.52117,-2.54635 4.23352,-8.29365 -1.21938,-9.53891 -2.91621,-0.66597 -6.03255,-0.0676 -8.95604,0.56569 -11.74239,2.54382 -21.21577,7.59276 -32.20196,12.4875 -8.21899,4.66563 -16.56877,9.10807 -24.65697,13.99693 -13.62419,8.23505 -29.37169,19.07569 -41.98546,28.76061 -8.66323,6.65165 -23.24365,18.42984 -30.81766,27.31738 -2.14257,2.51415 -3.44054,5.63999 -5.16083,8.45997 7.80269,3.10618 3.18227,2.21234 16.96614,-5.67251 7.91803,-4.52937 17.41678,-11.87312 24.39495,-17.25395 13.07661,-10.08332 18.34997,-14.575 31.23123,-25.14063 15.23807,-12.76114 30.29662,-25.82362 46.14757,-37.82954 3.72261,-2.81961 4.13115,-3.0557 7.35759,-5.25686 0,0 -3.89255,1.50663 -3.89255,1.50663 z" />
    <path
       style="fill:url(#meshgradient180);fill-opacity:1;fill-rule:nonzero;stroke:none;stroke-width:0.264583"
       id="path178"
       d="m 668.45602,242.98886 c -0.80197,0.0414 -1.61858,-0.0339 -2.40596,0.12415 -9.56873,1.92018 -20.67356,8.39528 -28.03649,14.32156 -2.11251,1.70031 -3.73862,3.92912 -5.6079,5.89368 -3.23455,5.7191 -5.02687,6.92552 -4.59552,13.78551 0.62738,9.97744 8.26887,17.62522 14.86427,24.24615 0.8759,0.98343 7.59378,9.65626 6.43249,-3.17614 -0.18383,-2.03142 -3.70149,-1.71971 -5.59517,-2.47764 -6.85318,-2.74293 -12.50005,-4.62192 -19.70137,-6.65474 -3.78865,-1.06947 -7.62725,-1.95332 -11.44088,-2.92995 -0.77687,-0.1756 -14.1982,-3.05834 -16.58316,-4.03883 -0.50151,-0.20617 -0.5303,-1.61216 -0.97512,-1.30207 -1.45102,1.01153 -4.95638,3.91803 -3.21397,4.22233 4.58851,0.80139 9.16752,-1.6614 13.76992,-2.37871 7.39553,-1.15269 14.81389,-2.1539 22.22085,-3.23083 7.84402,-0.55785 15.68802,-1.11567 23.53204,-1.67352 0,0 0.18251,-0.13459 0.18251,-0.13459 v 0 c -7.84402,0.55779 -15.68807,1.11562 -23.5321,1.67341 -5.8675,-0.0669 -11.73464,-0.21574 -17.60249,-0.20079 -3.72591,0.01 -7.59888,-0.77378 -11.17438,0.27416 -4.61616,1.35292 -8.89469,3.87736 -12.76001,6.74066 -0.61108,0.45267 1.11379,1.12384 1.84042,1.34818 2.14156,0.66125 17.57224,3.17315 17.78597,3.20934 8.42569,1.71924 15.22879,2.85396 23.40891,5.50342 2.89152,0.93651 5.70079,2.12383 8.46963,3.37743 1.74567,0.79036 3.13608,2.80347 5.05142,2.74434 2.7685,-0.0855 5.5149,-1.42833 7.69419,-3.13786 0.62876,-0.49318 -1.3267,-0.89109 -1.99003,-1.33662 -1.52345,-1.4238 -3.14775,-2.74682 -4.57034,-4.27138 -6.36122,-6.81723 -12.53934,-16.29333 -9.61249,-26.12575 0.66764,-2.2429 2.17455,-4.14448 3.26183,-6.21671 1.70347,-1.86195 3.39302,-3.7367 5.11038,-5.58584 0.74363,-0.8007 1.35823,-1.76404 2.2721,-2.36317 2.01684,-1.3222 4.22313,-2.34079 6.42009,-3.33535 3.73507,-1.69086 7.69136,-2.97265 11.80838,-3.13294 0,0 5.27198,-3.76089 5.27198,-3.76089 z" />
  </g>
  <script
     id="mesh_polyfill"
     type="text/javascript">
!function(){const t=&quot;http://www.w3.org/2000/svg&quot;,e=&quot;http://www.w3.org/1999/xlink&quot;,s=&quot;http://www.w3.org/1999/xhtml&quot;,r=2;if(document.createElementNS(t,&quot;meshgradient&quot;).x)return;const n=(t,e,s,r)=&gt;{let n=new x(.5*(e.x+s.x),.5*(e.y+s.y)),o=new x(.5*(t.x+e.x),.5*(t.y+e.y)),i=new x(.5*(s.x+r.x),.5*(s.y+r.y)),a=new x(.5*(n.x+o.x),.5*(n.y+o.y)),h=new x(.5*(n.x+i.x),.5*(n.y+i.y)),l=new x(.5*(a.x+h.x),.5*(a.y+h.y));return[[t,o,a,l],[l,h,i,r]]},o=t=&gt;{let e=t[0].distSquared(t[1]),s=t[2].distSquared(t[3]),r=.25*t[0].distSquared(t[2]),n=.25*t[1].distSquared(t[3]),o=e&gt;s?e:s,i=r&gt;n?r:n;return 18*(o&gt;i?o:i)},i=(t,e)=&gt;Math.sqrt(t.distSquared(e)),a=(t,e)=&gt;t.scale(2/3).add(e.scale(1/3)),h=t=&gt;{let e,s,r,n,o,i,a,h=new g;return t.match(/(\w+\(\s*[^)]+\))+/g).forEach(t=&gt;{let l=t.match(/[\w.-]+/g),d=l.shift();switch(d){case&quot;translate&quot;:2===l.length?e=new g(1,0,0,1,l[0],l[1]):(console.error(&quot;mesh.js: translate does not have 2 arguments!&quot;),e=new g(1,0,0,1,0,0)),h=h.append(e);break;case&quot;scale&quot;:1===l.length?s=new g(l[0],0,0,l[0],0,0):2===l.length?s=new g(l[0],0,0,l[1],0,0):(console.error(&quot;mesh.js: scale does not have 1 or 2 arguments!&quot;),s=new g(1,0,0,1,0,0)),h=h.append(s);break;case&quot;rotate&quot;:if(3===l.length&amp;&amp;(e=new g(1,0,0,1,l[1],l[2]),h=h.append(e)),l[0]){r=l[0]*Math.PI/180;let t=Math.cos(r),e=Math.sin(r);Math.abs(t)&lt;1e-16&amp;&amp;(t=0),Math.abs(e)&lt;1e-16&amp;&amp;(e=0),a=new g(t,e,-e,t,0,0),h=h.append(a)}else console.error(&quot;math.js: No argument to rotate transform!&quot;);3===l.length&amp;&amp;(e=new g(1,0,0,1,-l[1],-l[2]),h=h.append(e));break;case&quot;skewX&quot;:l[0]?(r=l[0]*Math.PI/180,n=Math.tan(r),o=new g(1,0,n,1,0,0),h=h.append(o)):console.error(&quot;math.js: No argument to skewX transform!&quot;);break;case&quot;skewY&quot;:l[0]?(r=l[0]*Math.PI/180,n=Math.tan(r),i=new g(1,n,0,1,0,0),h=h.append(i)):console.error(&quot;math.js: No argument to skewY transform!&quot;);break;case&quot;matrix&quot;:6===l.length?h=h.append(new g(...l)):console.error(&quot;math.js: Incorrect number of arguments for matrix!&quot;);break;default:console.error(&quot;mesh.js: Unhandled transform type: &quot;+d)}}),h},l=t=&gt;{let e=[],s=t.split(/[ ,]+/);for(let t=0,r=s.length-1;t&lt;r;t+=2)e.push(new x(parseFloat(s[t]),parseFloat(s[t+1])));return e},d=(t,e)=&gt;{for(let s in e)t.setAttribute(s,e[s])},c=(t,e,s,r,n)=&gt;{let o,i,a=[0,0,0,0];for(let h=0;h&lt;3;++h)e[h]&lt;t[h]&amp;&amp;e[h]&lt;s[h]||t[h]&lt;e[h]&amp;&amp;s[h]&lt;e[h]?a[h]=0:(a[h]=.5*((e[h]-t[h])/r+(s[h]-e[h])/n),o=Math.abs(3*(e[h]-t[h])/r),i=Math.abs(3*(s[h]-e[h])/n),a[h]&gt;o?a[h]=o:a[h]&gt;i&amp;&amp;(a[h]=i));return a},u=[[1,0,0,0,0,0,0,0,0,0,0,0,0,0,0,0],[0,0,0,0,1,0,0,0,0,0,0,0,0,0,0,0],[-3,3,0,0,-2,-1,0,0,0,0,0,0,0,0,0,0],[2,-2,0,0,1,1,0,0,0,0,0,0,0,0,0,0],[0,0,0,0,0,0,0,0,1,0,0,0,0,0,0,0],[0,0,0,0,0,0,0,0,0,0,0,0,1,0,0,0],[0,0,0,0,0,0,0,0,-3,3,0,0,-2,-1,0,0],[0,0,0,0,0,0,0,0,2,-2,0,0,1,1,0,0],[-3,0,3,0,0,0,0,0,-2,0,-1,0,0,0,0,0],[0,0,0,0,-3,0,3,0,0,0,0,0,-2,0,-1,0],[9,-9,-9,9,6,3,-6,-3,6,-6,3,-3,4,2,2,1],[-6,6,6,-6,-3,-3,3,3,-4,4,-2,2,-2,-2,-1,-1],[2,0,-2,0,0,0,0,0,1,0,1,0,0,0,0,0],[0,0,0,0,2,0,-2,0,0,0,0,0,1,0,1,0],[-6,6,6,-6,-4,-2,4,2,-3,3,-3,3,-2,-1,-2,-1],[4,-4,-4,4,2,2,-2,-2,2,-2,2,-2,1,1,1,1]],f=t=&gt;{let e=[];for(let s=0;s&lt;16;++s){e[s]=0;for(let r=0;r&lt;16;++r)e[s]+=u[s][r]*t[r]}return e},p=(t,e,s)=&gt;{const r=e*e,n=s*s,o=e*e*e,i=s*s*s;return t[0]+t[1]*e+t[2]*r+t[3]*o+t[4]*s+t[5]*s*e+t[6]*s*r+t[7]*s*o+t[8]*n+t[9]*n*e+t[10]*n*r+t[11]*n*o+t[12]*i+t[13]*i*e+t[14]*i*r+t[15]*i*o},y=t=&gt;{let e=[],s=[],r=[];for(let s=0;s&lt;4;++s)e[s]=[],e[s][0]=n(t[0][s],t[1][s],t[2][s],t[3][s]),e[s][1]=[],e[s][1].push(...n(...e[s][0][0])),e[s][1].push(...n(...e[s][0][1])),e[s][2]=[],e[s][2].push(...n(...e[s][1][0])),e[s][2].push(...n(...e[s][1][1])),e[s][2].push(...n(...e[s][1][2])),e[s][2].push(...n(...e[s][1][3]));for(let t=0;t&lt;8;++t){s[t]=[];for(let r=0;r&lt;4;++r)s[t][r]=[],s[t][r][0]=n(e[0][2][t][r],e[1][2][t][r],e[2][2][t][r],e[3][2][t][r]),s[t][r][1]=[],s[t][r][1].push(...n(...s[t][r][0][0])),s[t][r][1].push(...n(...s[t][r][0][1])),s[t][r][2]=[],s[t][r][2].push(...n(...s[t][r][1][0])),s[t][r][2].push(...n(...s[t][r][1][1])),s[t][r][2].push(...n(...s[t][r][1][2])),s[t][r][2].push(...n(...s[t][r][1][3]))}for(let t=0;t&lt;8;++t){r[t]=[];for(let e=0;e&lt;8;++e)r[t][e]=[],r[t][e][0]=s[t][0][2][e],r[t][e][1]=s[t][1][2][e],r[t][e][2]=s[t][2][2][e],r[t][e][3]=s[t][3][2][e]}return r};class x{constructor(t,e){this.x=t||0,this.y=e||0}toString(){return`(x=${this.x}, y=${this.y})`}clone(){return new x(this.x,this.y)}add(t){return new x(this.x+t.x,this.y+t.y)}scale(t){return void 0===t.x?new x(this.x*t,this.y*t):new x(this.x*t.x,this.y*t.y)}distSquared(t){let e=this.x-t.x,s=this.y-t.y;return e*e+s*s}transform(t){let e=this.x*t.a+this.y*t.c+t.e,s=this.x*t.b+this.y*t.d+t.f;return new x(e,s)}}class g{constructor(t,e,s,r,n,o){void 0===t?(this.a=1,this.b=0,this.c=0,this.d=1,this.e=0,this.f=0):(this.a=t,this.b=e,this.c=s,this.d=r,this.e=n,this.f=o)}toString(){return`affine: ${this.a} ${this.c} ${this.e} \n       ${this.b} ${this.d} ${this.f}`}append(t){t instanceof g||console.error(&quot;mesh.js: argument to Affine.append is not affine!&quot;);let e=this.a*t.a+this.c*t.b,s=this.b*t.a+this.d*t.b,r=this.a*t.c+this.c*t.d,n=this.b*t.c+this.d*t.d,o=this.a*t.e+this.c*t.f+this.e,i=this.b*t.e+this.d*t.f+this.f;return new g(e,s,r,n,o,i)}}class w{constructor(t,e){this.nodes=t,this.colors=e}paintCurve(t,e){if(o(this.nodes)&gt;r){const s=n(...this.nodes);let r=[[],[]],o=[[],[]];for(let t=0;t&lt;4;++t)r[0][t]=this.colors[0][t],r[1][t]=(this.colors[0][t]+this.colors[1][t])/2,o[0][t]=r[1][t],o[1][t]=this.colors[1][t];let i=new w(s[0],r),a=new w(s[1],o);i.paintCurve(t,e),a.paintCurve(t,e)}else{let s=Math.round(this.nodes[0].x);if(s&gt;=0&amp;&amp;s&lt;e){let r=4*(~~this.nodes[0].y*e+s);t[r]=Math.round(this.colors[0][0]),t[r+1]=Math.round(this.colors[0][1]),t[r+2]=Math.round(this.colors[0][2]),t[r+3]=Math.round(this.colors[0][3])}}}}class m{constructor(t,e){this.nodes=t,this.colors=e}split(){let t=[[],[],[],[]],e=[[],[],[],[]],s=[[[],[]],[[],[]]],r=[[[],[]],[[],[]]];for(let s=0;s&lt;4;++s){const r=n(this.nodes[0][s],this.nodes[1][s],this.nodes[2][s],this.nodes[3][s]);t[0][s]=r[0][0],t[1][s]=r[0][1],t[2][s]=r[0][2],t[3][s]=r[0][3],e[0][s]=r[1][0],e[1][s]=r[1][1],e[2][s]=r[1][2],e[3][s]=r[1][3]}for(let t=0;t&lt;4;++t)s[0][0][t]=this.colors[0][0][t],s[0][1][t]=this.colors[0][1][t],s[1][0][t]=(this.colors[0][0][t]+this.colors[1][0][t])/2,s[1][1][t]=(this.colors[0][1][t]+this.colors[1][1][t])/2,r[0][0][t]=s[1][0][t],r[0][1][t]=s[1][1][t],r[1][0][t]=this.colors[1][0][t],r[1][1][t]=this.colors[1][1][t];return[new m(t,s),new m(e,r)]}paint(t,e){let s,n=!1;for(let t=0;t&lt;4;++t)if((s=o([this.nodes[0][t],this.nodes[1][t],this.nodes[2][t],this.nodes[3][t]]))&gt;r){n=!0;break}if(n){let s=this.split();s[0].paint(t,e),s[1].paint(t,e)}else{new w([...this.nodes[0]],[...this.colors[0]]).paintCurve(t,e)}}}class b{constructor(t){this.readMesh(t),this.type=t.getAttribute(&quot;type&quot;)||&quot;bilinear&quot;}readMesh(t){let e=[[]],s=[[]],r=Number(t.getAttribute(&quot;x&quot;)),n=Number(t.getAttribute(&quot;y&quot;));e[0][0]=new x(r,n);let o=t.children;for(let t=0,r=o.length;t&lt;r;++t){e[3*t+1]=[],e[3*t+2]=[],e[3*t+3]=[],s[t+1]=[];let r=o[t].children;for(let n=0,o=r.length;n&lt;o;++n){let o=r[n].children;for(let r=0,i=o.length;r&lt;i;++r){let i=r;0!==t&amp;&amp;++i;let h,d=o[r].getAttribute(&quot;path&quot;),c=&quot;l&quot;;null!=d&amp;&amp;(c=(h=d.match(/\s*([lLcC])\s*(.*)/))[1]);let u=l(h[2]);switch(c){case&quot;l&quot;:0===i?(e[3*t][3*n+3]=u[0].add(e[3*t][3*n]),e[3*t][3*n+1]=a(e[3*t][3*n],e[3*t][3*n+3]),e[3*t][3*n+2]=a(e[3*t][3*n+3],e[3*t][3*n])):1===i?(e[3*t+3][3*n+3]=u[0].add(e[3*t][3*n+3]),e[3*t+1][3*n+3]=a(e[3*t][3*n+3],e[3*t+3][3*n+3]),e[3*t+2][3*n+3]=a(e[3*t+3][3*n+3],e[3*t][3*n+3])):2===i?(0===n&amp;&amp;(e[3*t+3][3*n+0]=u[0].add(e[3*t+3][3*n+3])),e[3*t+3][3*n+1]=a(e[3*t+3][3*n],e[3*t+3][3*n+3]),e[3*t+3][3*n+2]=a(e[3*t+3][3*n+3],e[3*t+3][3*n])):(e[3*t+1][3*n]=a(e[3*t][3*n],e[3*t+3][3*n]),e[3*t+2][3*n]=a(e[3*t+3][3*n],e[3*t][3*n]));break;case&quot;L&quot;:0===i?(e[3*t][3*n+3]=u[0],e[3*t][3*n+1]=a(e[3*t][3*n],e[3*t][3*n+3]),e[3*t][3*n+2]=a(e[3*t][3*n+3],e[3*t][3*n])):1===i?(e[3*t+3][3*n+3]=u[0],e[3*t+1][3*n+3]=a(e[3*t][3*n+3],e[3*t+3][3*n+3]),e[3*t+2][3*n+3]=a(e[3*t+3][3*n+3],e[3*t][3*n+3])):2===i?(0===n&amp;&amp;(e[3*t+3][3*n+0]=u[0]),e[3*t+3][3*n+1]=a(e[3*t+3][3*n],e[3*t+3][3*n+3]),e[3*t+3][3*n+2]=a(e[3*t+3][3*n+3],e[3*t+3][3*n])):(e[3*t+1][3*n]=a(e[3*t][3*n],e[3*t+3][3*n]),e[3*t+2][3*n]=a(e[3*t+3][3*n],e[3*t][3*n]));break;case&quot;c&quot;:0===i?(e[3*t][3*n+1]=u[0].add(e[3*t][3*n]),e[3*t][3*n+2]=u[1].add(e[3*t][3*n]),e[3*t][3*n+3]=u[2].add(e[3*t][3*n])):1===i?(e[3*t+1][3*n+3]=u[0].add(e[3*t][3*n+3]),e[3*t+2][3*n+3]=u[1].add(e[3*t][3*n+3]),e[3*t+3][3*n+3]=u[2].add(e[3*t][3*n+3])):2===i?(e[3*t+3][3*n+2]=u[0].add(e[3*t+3][3*n+3]),e[3*t+3][3*n+1]=u[1].add(e[3*t+3][3*n+3]),0===n&amp;&amp;(e[3*t+3][3*n+0]=u[2].add(e[3*t+3][3*n+3]))):(e[3*t+2][3*n]=u[0].add(e[3*t+3][3*n]),e[3*t+1][3*n]=u[1].add(e[3*t+3][3*n]));break;case&quot;C&quot;:0===i?(e[3*t][3*n+1]=u[0],e[3*t][3*n+2]=u[1],e[3*t][3*n+3]=u[2]):1===i?(e[3*t+1][3*n+3]=u[0],e[3*t+2][3*n+3]=u[1],e[3*t+3][3*n+3]=u[2]):2===i?(e[3*t+3][3*n+2]=u[0],e[3*t+3][3*n+1]=u[1],0===n&amp;&amp;(e[3*t+3][3*n+0]=u[2])):(e[3*t+2][3*n]=u[0],e[3*t+1][3*n]=u[1]);break;default:console.error(&quot;mesh.js: &quot;+c+&quot; invalid path type.&quot;)}if(0===t&amp;&amp;0===n||r&gt;0){let e=window.getComputedStyle(o[r]).stopColor.match(/^rgb\s*\(\s*(\d+)\s*,\s*(\d+)\s*,\s*(\d+)\s*\)$/i),a=window.getComputedStyle(o[r]).stopOpacity,h=255;a&amp;&amp;(h=Math.floor(255*a)),e&amp;&amp;(0===i?(s[t][n]=[],s[t][n][0]=Math.floor(e[1]),s[t][n][1]=Math.floor(e[2]),s[t][n][2]=Math.floor(e[3]),s[t][n][3]=h):1===i?(s[t][n+1]=[],s[t][n+1][0]=Math.floor(e[1]),s[t][n+1][1]=Math.floor(e[2]),s[t][n+1][2]=Math.floor(e[3]),s[t][n+1][3]=h):2===i?(s[t+1][n+1]=[],s[t+1][n+1][0]=Math.floor(e[1]),s[t+1][n+1][1]=Math.floor(e[2]),s[t+1][n+1][2]=Math.floor(e[3]),s[t+1][n+1][3]=h):3===i&amp;&amp;(s[t+1][n]=[],s[t+1][n][0]=Math.floor(e[1]),s[t+1][n][1]=Math.floor(e[2]),s[t+1][n][2]=Math.floor(e[3]),s[t+1][n][3]=h))}}e[3*t+1][3*n+1]=new x,e[3*t+1][3*n+2]=new x,e[3*t+2][3*n+1]=new x,e[3*t+2][3*n+2]=new x,e[3*t+1][3*n+1].x=(-4*e[3*t][3*n].x+6*(e[3*t][3*n+1].x+e[3*t+1][3*n].x)+-2*(e[3*t][3*n+3].x+e[3*t+3][3*n].x)+3*(e[3*t+3][3*n+1].x+e[3*t+1][3*n+3].x)+-1*e[3*t+3][3*n+3].x)/9,e[3*t+1][3*n+2].x=(-4*e[3*t][3*n+3].x+6*(e[3*t][3*n+2].x+e[3*t+1][3*n+3].x)+-2*(e[3*t][3*n].x+e[3*t+3][3*n+3].x)+3*(e[3*t+3][3*n+2].x+e[3*t+1][3*n].x)+-1*e[3*t+3][3*n].x)/9,e[3*t+2][3*n+1].x=(-4*e[3*t+3][3*n].x+6*(e[3*t+3][3*n+1].x+e[3*t+2][3*n].x)+-2*(e[3*t+3][3*n+3].x+e[3*t][3*n].x)+3*(e[3*t][3*n+1].x+e[3*t+2][3*n+3].x)+-1*e[3*t][3*n+3].x)/9,e[3*t+2][3*n+2].x=(-4*e[3*t+3][3*n+3].x+6*(e[3*t+3][3*n+2].x+e[3*t+2][3*n+3].x)+-2*(e[3*t+3][3*n].x+e[3*t][3*n+3].x)+3*(e[3*t][3*n+2].x+e[3*t+2][3*n].x)+-1*e[3*t][3*n].x)/9,e[3*t+1][3*n+1].y=(-4*e[3*t][3*n].y+6*(e[3*t][3*n+1].y+e[3*t+1][3*n].y)+-2*(e[3*t][3*n+3].y+e[3*t+3][3*n].y)+3*(e[3*t+3][3*n+1].y+e[3*t+1][3*n+3].y)+-1*e[3*t+3][3*n+3].y)/9,e[3*t+1][3*n+2].y=(-4*e[3*t][3*n+3].y+6*(e[3*t][3*n+2].y+e[3*t+1][3*n+3].y)+-2*(e[3*t][3*n].y+e[3*t+3][3*n+3].y)+3*(e[3*t+3][3*n+2].y+e[3*t+1][3*n].y)+-1*e[3*t+3][3*n].y)/9,e[3*t+2][3*n+1].y=(-4*e[3*t+3][3*n].y+6*(e[3*t+3][3*n+1].y+e[3*t+2][3*n].y)+-2*(e[3*t+3][3*n+3].y+e[3*t][3*n].y)+3*(e[3*t][3*n+1].y+e[3*t+2][3*n+3].y)+-1*e[3*t][3*n+3].y)/9,e[3*t+2][3*n+2].y=(-4*e[3*t+3][3*n+3].y+6*(e[3*t+3][3*n+2].y+e[3*t+2][3*n+3].y)+-2*(e[3*t+3][3*n].y+e[3*t][3*n+3].y)+3*(e[3*t][3*n+2].y+e[3*t+2][3*n].y)+-1*e[3*t][3*n].y)/9}}this.nodes=e,this.colors=s}paintMesh(t,e){let s=(this.nodes.length-1)/3,r=(this.nodes[0].length-1)/3;if(&quot;bilinear&quot;===this.type||s&lt;2||r&lt;2){let n;for(let o=0;o&lt;s;++o)for(let s=0;s&lt;r;++s){let r=[];for(let t=3*o,e=3*o+4;t&lt;e;++t)r.push(this.nodes[t].slice(3*s,3*s+4));let i=[];i.push(this.colors[o].slice(s,s+2)),i.push(this.colors[o+1].slice(s,s+2)),(n=new m(r,i)).paint(t,e)}}else{let n,o,a,h,l,d,u;const x=s,g=r;s++,r++;let w=new Array(s);for(let t=0;t&lt;s;++t){w[t]=new Array(r);for(let e=0;e&lt;r;++e)w[t][e]=[],w[t][e][0]=this.nodes[3*t][3*e],w[t][e][1]=this.colors[t][e]}for(let t=0;t&lt;s;++t)for(let e=0;e&lt;r;++e)0!==t&amp;&amp;t!==x&amp;&amp;(n=i(w[t-1][e][0],w[t][e][0]),o=i(w[t+1][e][0],w[t][e][0]),w[t][e][2]=c(w[t-1][e][1],w[t][e][1],w[t+1][e][1],n,o)),0!==e&amp;&amp;e!==g&amp;&amp;(n=i(w[t][e-1][0],w[t][e][0]),o=i(w[t][e+1][0],w[t][e][0]),w[t][e][3]=c(w[t][e-1][1],w[t][e][1],w[t][e+1][1],n,o));for(let t=0;t&lt;r;++t){w[0][t][2]=[],w[x][t][2]=[];for(let e=0;e&lt;4;++e)n=i(w[1][t][0],w[0][t][0]),o=i(w[x][t][0],w[x-1][t][0]),w[0][t][2][e]=n&gt;0?2*(w[1][t][1][e]-w[0][t][1][e])/n-w[1][t][2][e]:0,w[x][t][2][e]=o&gt;0?2*(w[x][t][1][e]-w[x-1][t][1][e])/o-w[x-1][t][2][e]:0}for(let t=0;t&lt;s;++t){w[t][0][3]=[],w[t][g][3]=[];for(let e=0;e&lt;4;++e)n=i(w[t][1][0],w[t][0][0]),o=i(w[t][g][0],w[t][g-1][0]),w[t][0][3][e]=n&gt;0?2*(w[t][1][1][e]-w[t][0][1][e])/n-w[t][1][3][e]:0,w[t][g][3][e]=o&gt;0?2*(w[t][g][1][e]-w[t][g-1][1][e])/o-w[t][g-1][3][e]:0}for(let s=0;s&lt;x;++s)for(let r=0;r&lt;g;++r){let n=i(w[s][r][0],w[s+1][r][0]),o=i(w[s][r+1][0],w[s+1][r+1][0]),c=i(w[s][r][0],w[s][r+1][0]),x=i(w[s+1][r][0],w[s+1][r+1][0]),g=[[],[],[],[]];for(let t=0;t&lt;4;++t){(d=[])[0]=w[s][r][1][t],d[1]=w[s+1][r][1][t],d[2]=w[s][r+1][1][t],d[3]=w[s+1][r+1][1][t],d[4]=w[s][r][2][t]*n,d[5]=w[s+1][r][2][t]*n,d[6]=w[s][r+1][2][t]*o,d[7]=w[s+1][r+1][2][t]*o,d[8]=w[s][r][3][t]*c,d[9]=w[s+1][r][3][t]*x,d[10]=w[s][r+1][3][t]*c,d[11]=w[s+1][r+1][3][t]*x,d[12]=0,d[13]=0,d[14]=0,d[15]=0,u=f(d);for(let e=0;e&lt;9;++e){g[t][e]=[];for(let s=0;s&lt;9;++s)g[t][e][s]=p(u,e/8,s/8),g[t][e][s]&gt;255?g[t][e][s]=255:g[t][e][s]&lt;0&amp;&amp;(g[t][e][s]=0)}}h=[];for(let t=3*s,e=3*s+4;t&lt;e;++t)h.push(this.nodes[t].slice(3*r,3*r+4));l=y(h);for(let s=0;s&lt;8;++s)for(let r=0;r&lt;8;++r)(a=new m(l[s][r],[[[g[0][s][r],g[1][s][r],g[2][s][r],g[3][s][r]],[g[0][s][r+1],g[1][s][r+1],g[2][s][r+1],g[3][s][r+1]]],[[g[0][s+1][r],g[1][s+1][r],g[2][s+1][r],g[3][s+1][r]],[g[0][s+1][r+1],g[1][s+1][r+1],g[2][s+1][r+1],g[3][s+1][r+1]]]])).paint(t,e)}}}transform(t){if(t instanceof x)for(let e=0,s=this.nodes.length;e&lt;s;++e)for(let s=0,r=this.nodes[0].length;s&lt;r;++s)this.nodes[e][s]=this.nodes[e][s].add(t);else if(t instanceof g)for(let e=0,s=this.nodes.length;e&lt;s;++e)for(let s=0,r=this.nodes[0].length;s&lt;r;++s)this.nodes[e][s]=this.nodes[e][s].transform(t)}scale(t){for(let e=0,s=this.nodes.length;e&lt;s;++e)for(let s=0,r=this.nodes[0].length;s&lt;r;++s)this.nodes[e][s]=this.nodes[e][s].scale(t)}}document.querySelectorAll(&quot;rect,circle,ellipse,path,text&quot;).forEach((r,n)=&gt;{let o=r.getAttribute(&quot;id&quot;);o||(o=&quot;patchjs_shape&quot;+n,r.setAttribute(&quot;id&quot;,o));const i=r.style.fill.match(/^url\(\s*&quot;?\s*#([^\s&quot;]+)&quot;?\s*\)/),a=r.style.stroke.match(/^url\(\s*&quot;?\s*#([^\s&quot;]+)&quot;?\s*\)/);if(i&amp;&amp;i[1]){const a=document.getElementById(i[1]);if(a&amp;&amp;&quot;meshgradient&quot;===a.nodeName){const i=r.getBBox();let l=document.createElementNS(s,&quot;canvas&quot;);d(l,{width:i.width,height:i.height});const c=l.getContext(&quot;2d&quot;);let u=c.createImageData(i.width,i.height);const f=new b(a);&quot;objectBoundingBox&quot;===a.getAttribute(&quot;gradientUnits&quot;)&amp;&amp;f.scale(new x(i.width,i.height));const p=a.getAttribute(&quot;gradientTransform&quot;);null!=p&amp;&amp;f.transform(h(p)),&quot;userSpaceOnUse&quot;===a.getAttribute(&quot;gradientUnits&quot;)&amp;&amp;f.transform(new x(-i.x,-i.y)),f.paintMesh(u.data,l.width),c.putImageData(u,0,0);const y=document.createElementNS(t,&quot;image&quot;);d(y,{width:i.width,height:i.height,x:i.x,y:i.y});let g=l.toDataURL();y.setAttributeNS(e,&quot;xlink:href&quot;,g),r.parentNode.insertBefore(y,r),r.style.fill=&quot;none&quot;;const w=document.createElementNS(t,&quot;use&quot;);w.setAttributeNS(e,&quot;xlink:href&quot;,&quot;#&quot;+o);const m=&quot;patchjs_clip&quot;+n,M=document.createElementNS(t,&quot;clipPath&quot;);M.setAttribute(&quot;id&quot;,m),M.appendChild(w),r.parentElement.insertBefore(M,r),y.setAttribute(&quot;clip-path&quot;,&quot;url(#&quot;+m+&quot;)&quot;),u=null,l=null,g=null}}if(a&amp;&amp;a[1]){const o=document.getElementById(a[1]);if(o&amp;&amp;&quot;meshgradient&quot;===o.nodeName){const i=parseFloat(r.style.strokeWidth.slice(0,-2))*(parseFloat(r.style.strokeMiterlimit)||parseFloat(r.getAttribute(&quot;stroke-miterlimit&quot;))||1),a=r.getBBox(),l=Math.trunc(a.width+i),c=Math.trunc(a.height+i),u=Math.trunc(a.x-i/2),f=Math.trunc(a.y-i/2);let p=document.createElementNS(s,&quot;canvas&quot;);d(p,{width:l,height:c});const y=p.getContext(&quot;2d&quot;);let g=y.createImageData(l,c);const w=new b(o);&quot;objectBoundingBox&quot;===o.getAttribute(&quot;gradientUnits&quot;)&amp;&amp;w.scale(new x(l,c));const m=o.getAttribute(&quot;gradientTransform&quot;);null!=m&amp;&amp;w.transform(h(m)),&quot;userSpaceOnUse&quot;===o.getAttribute(&quot;gradientUnits&quot;)&amp;&amp;w.transform(new x(-u,-f)),w.paintMesh(g.data,p.width),y.putImageData(g,0,0);const M=document.createElementNS(t,&quot;image&quot;);d(M,{width:l,height:c,x:0,y:0});let S=p.toDataURL();M.setAttributeNS(e,&quot;xlink:href&quot;,S);const k=&quot;pattern_clip&quot;+n,A=document.createElementNS(t,&quot;pattern&quot;);d(A,{id:k,patternUnits:&quot;userSpaceOnUse&quot;,width:l,height:c,x:u,y:f}),A.appendChild(M),o.parentNode.appendChild(A),r.style.stroke=&quot;url(#&quot;+k+&quot;)&quot;,g=null,p=null,S=null}}})}();
</script>
</svg>
